
<svg xmlns="http://www.w3.org/2000/svg" version="1.1" xmlns:xlink="http://www.w3.org/1999/xlink" preserveAspectRatio="none" x="0px" y="0px" width="1024px" height="1024px" viewBox="0 0 1024 1024">
<defs>
<g id="Layer0_0_MEMBER_0_MEMBER_0_MEMBER_0_MEMBER_0_MEMBER_0_FILL">
<path fill="#D4F7FD" stroke="none" d="
M 80.75 0.05
L 80.8 0 0 0 0 126.2 104.85 126.2 104.85 24.1 80.75 0.05 Z"/>
</g>

<g id="Layer0_0_MEMBER_0_MEMBER_0_MEMBER_0_MEMBER_1_MEMBER_0_FILL">
<path fill="#25D6F2" stroke="none" d="
M 291.9 94.65
L 267.8 70.55 187.05 70.55 187.05 196.75 291.9 196.75 291.9 94.65 Z"/>
</g>

<g id="Layer0_0_MEMBER_0_MEMBER_0_MEMBER_0_MEMBER_2_MEMBER_0_FILL">
<path fill="#FFDAE0" stroke="none" d="
M 80.75 0.05
L 80.8 0 0 0 0 126.25 104.85 126.25 104.85 24.1 80.75 0.05 Z"/>
</g>

<g id="Layer0_0_MEMBER_0_MEMBER_0_MEMBER_0_MEMBER_3_MEMBER_0_FILL">
<path fill="#FF4363" stroke="none" d="
M 287.7 78.4
L 287.75 78.35 206.95 78.35 206.95 204.55 311.8 204.55 311.8 102.45 287.7 78.4 Z"/>
</g>

<g id="Layer0_0_MEMBER_0_MEMBER_0_MEMBER_0_MEMBER_4_MEMBER_0_FILL">
<path fill="#FFFFFF" stroke="none" d="
M 301.35 98.15
L 277.25 74.05 196.5 74.05 196.5 200.25 301.35 200.25 301.35 98.15 Z"/>
</g>

<g id="Layer0_0_MEMBER_0_MEMBER_0_MEMBER_0_MEMBER_5_MEMBER_0_FILL">
<path fill="#252C3E" stroke="none" d="
M 234.2 156.5
Q 227.9 162.8 227.9 171.7 227.9 172.6 228.55 173.25 229.2 173.9 230.1 173.9 231.05 173.9 231.65 173.25 232.3 172.6 232.3 171.7 232.3 164.6 237.35 159.6 242.35 154.6 249.4 154.6 256.5 154.6 261.5 159.6 266.55 164.6 266.55 171.7 266.55 172.6 267.2 173.25 267.8 173.9 268.75 173.9 269.65 173.9 270.3 173.25 270.95 172.6 270.95 171.7 270.95 162.8 264.65 156.5 258.3 150.2 249.4 150.2 240.5 150.2 234.2 156.5 Z"/>
</g>

<g id="Layer0_0_MEMBER_0_MEMBER_0_MEMBER_0_MEMBER_6_FILL">
<path fill="#252C3E" stroke="none" d="
M 230.45 121.05
L 239.45 112.05 234.75 107.35 225.75 116.4 216.75 107.35 212.05 112.05 221.05 121.05 212.05 130.1 216.75 134.75 225.75 125.75 234.75 134.8 239.45 130.1 230.45 121.05 Z"/>
</g>

<g id="Layer0_0_MEMBER_0_MEMBER_0_MEMBER_0_MEMBER_7_FILL">
<path fill="#252C3E" stroke="none" d="
M 273.1 125.75
L 282.1 134.8 286.8 130.1 277.8 121.05 286.8 112.05 282.1 107.35 273.1 116.4 264.05 107.35 259.4 112.05 268.4 121.05 259.4 130.1 264.05 134.75 273.1 125.75 Z"/>
</g>

<g id="Layer0_0_MEMBER_0_MEMBER_0_MEMBER_1_FILL">
<path fill="#FFFFFF" stroke="none" d="
M 163.3 84.75
L 163.3 91.8 236.15 91.8 236.15 84.75 163.3 84.75 Z"/>
</g>

<g id="Layer0_0_MEMBER_0_MEMBER_0_MEMBER_2_FILL">
<path fill="#FFFFFF" stroke="none" d="
M 208.5 112.25
L 208.5 105.2 152.55 105.2 152.55 112.25 208.5 112.25 Z"/>
</g>

<g id="Layer0_0_MEMBER_0_MEMBER_0_MEMBER_3_FILL">
<path fill="#FFFFFF" stroke="none" d="
M 335.85 150.2
L 335.85 143.15 293.65 143.15 293.65 150.2 335.85 150.2 Z"/>
</g>

<g id="Layer0_0_MEMBER_0_MEMBER_0_MEMBER_4_FILL">
<path fill="#FFFFFF" stroke="none" d="
M 169.9 180.55
L 169.9 187.6 212.05 187.6 212.05 180.55 169.9 180.55 Z"/>
</g>

<g id="Layer0_0_MEMBER_0_MEMBER_0_MEMBER_5_FILL">
<path fill="#FF4363" stroke="none" d="
M 323.05 128.1
L 323.05 121.05 293.65 121.05 293.65 128.1 323.05 128.1 Z"/>
</g>

<g id="Layer0_0_MEMBER_0_MEMBER_0_MEMBER_6_FILL">
<path fill="#FF4363" stroke="none" d="
M 326.6 177.4
L 326.6 170.4 285.35 170.4 285.35 177.4 326.6 177.4 Z"/>
</g>

<g id="Layer0_0_MEMBER_0_MEMBER_0_MEMBER_7_FILL">
<path fill="#25D6F2" stroke="none" d="
M 213.7 153.7
L 213.7 146.7 172.5 146.7 172.5 153.7 213.7 153.7 Z"/>
</g>

<g id="Layer0_0_MEMBER_0_MEMBER_0_MEMBER_8_FILL">
<path fill="#25D6F2" stroke="none" d="
M 179.95 72.55
L 179.95 79.6 231.05 79.6 231.05 72.55 179.95 72.55 Z"/>
</g>

<g id="Layer0_0_MEMBER_0_MEMBER_0_MEMBER_9_FILL">
<path fill="#25D6F2" stroke="none" d="
M 263.7 187.6
L 263.7 194.6 314.75 194.6 314.75 187.6 263.7 187.6 Z"/>
</g>

<g id="Layer0_0_MEMBER_0_MEMBER_0_MEMBER_10_FILL">
<path fill="#25D6F2" stroke="none" d="
M 218.4 216.4
L 218.4 209.4 187.15 209.4 187.15 216.4 218.4 216.4 Z"/>
</g>

<g id="Layer0_0_MEMBER_0_MEMBER_0_MEMBER_11_FILL">
<path fill="#FFFFFF" stroke="none" d="
M 260.65 57.5
L 260.65 64.55 291.9 64.55 291.9 57.5 260.65 57.5 Z"/>
</g>

<g id="Layer0_0_MEMBER_0_MEMBER_0_MEMBER_12_FILL">
<path fill="#FFFFFF" stroke="none" d="
M 179.95 134.8
L 179.95 127.75 161.7 127.75 161.7 134.8 179.95 134.8 Z"/>
</g>

<g id="Layer0_0_MEMBER_0_MEMBER_0_MEMBER_13_FILL">
<path fill="#FFFFFF" stroke="none" d="
M 326.65 90.35
L 326.65 83.35 308.35 83.35 308.35 90.35 326.65 90.35 Z"/>
</g>

<g id="Layer0_0_MEMBER_0_MEMBER_0_MEMBER_14_FILL">
<path fill="#FF4363" stroke="none" d="
M 345 110.9
L 345 103.85 326.7 103.85 326.7 110.9 345 110.9 Z"/>
</g>

<g id="Layer0_0_MEMBER_0_MEMBER_0_MEMBER_15_FILL">
<path fill="#FF4363" stroke="none" d="
M 170.85 169.1
L 170.85 162.05 152.55 162.05 152.55 169.1 170.85 169.1 Z"/>
</g>

<g id="Layer0_0_MEMBER_0_MEMBER_0_MEMBER_16_FILL">
<path fill="#25D6F2" stroke="none" d="
M 347.05 165.55
L 347.05 158.55 328.75 158.55 328.75 165.55 347.05 165.55 Z"/>
</g>

<g id="Layer0_0_MEMBER_0_MEMBER_1_MEMBER_0_MEMBER_0_FILL">
<path fill="#D4F7FD" stroke="none" d="
M 526.55 719.7
L 526.55 586.45 390.35 586.45 390.35 719.7 526.55 719.7
M 436.3 603.95
L 480 603.95 480 701.75 436.3 701.75 436.3 603.95
M 302.5 696.2
L 302.5 719.7 345.95 719.7 345.95 696.2 359.45 696.2 371.85 678.95 345.95 678.95 345.95 586.45 307.35 586.45 223.05 678.95 223.05 696.2 302.5 696.2
M 249.7 678.95
L 302.5 621.05 302.5 678.95 249.7 678.95
M 693.9 678.95
L 668 678.95 668 586.45 629.4 586.45 545.1 678.95 545.1 696.2 624.55 696.2 624.55 719.7 668 719.7 668 696.2 681.5 696.2 693.9 678.95
M 571.75 678.95
L 624.55 621.05 624.55 678.95 571.75 678.95 Z"/>
</g>

<g id="Layer0_0_MEMBER_0_MEMBER_1_MEMBER_0_MEMBER_1_FILL">
<path fill="#FFDAE0" stroke="none" d="
M 614.45 696.4
L 614.45 563.15 478.25 563.15 478.25 696.4 614.45 696.4
M 524.2 580.65
L 567.9 580.65 567.9 678.45 524.2 678.45 524.2 580.65
M 310.95 655.65
L 310.95 672.9 390.4 672.9 390.4 696.4 433.85 696.4 433.85 672.9 447.35 672.9 459.75 655.65 433.85 655.65 433.85 563.15 395.25 563.15 310.95 655.65
M 337.6 655.65
L 390.4 597.75 390.4 655.65 337.6 655.65
M 755.9 563.15
L 717.3 563.15 633 655.65 633 672.9 712.45 672.9 712.45 696.4 755.9 696.4 755.9 672.9 769.4 672.9 781.8 655.65 755.9 655.65 755.9 563.15
M 659.65 655.65
L 712.45 597.75 712.45 655.65 659.65 655.65 Z"/>
</g>

<g id="Layer0_0_MEMBER_0_MEMBER_1_MEMBER_0_MEMBER_2_FILL">
<path fill="#25D6F2" stroke="none" d="
M 553.65 714.2
L 553.65 580.95 417.45 580.95 417.45 714.2 553.65 714.2
M 463.4 696.25
L 463.4 598.45 507.1 598.45 507.1 696.25 463.4 696.25
M 250.15 673.45
L 250.15 690.7 329.6 690.7 329.6 714.2 373.05 714.2 373.05 690.7 386.55 690.7 398.95 673.45 373.05 673.45 373.05 580.95 334.45 580.95 250.15 673.45
M 329.6 615.55
L 329.6 673.45 276.8 673.45 329.6 615.55
M 695.1 580.95
L 656.5 580.95 572.2 673.45 572.2 690.7 651.65 690.7 651.65 714.2 695.1 714.2 695.1 690.7 708.6 690.7 721 673.45 695.1 673.45 695.1 580.95
M 651.65 615.55
L 651.65 673.45 598.85 673.45 651.65 615.55 Z"/>
</g>

<g id="Layer0_0_MEMBER_0_MEMBER_1_MEMBER_0_MEMBER_3_FILL">
<path fill="#FF4363" stroke="none" d="
M 598.3 714.2
L 598.3 580.95 462.1 580.95 462.1 714.2 598.3 714.2
M 508.05 598.45
L 551.75 598.45 551.75 696.25 508.05 696.25 508.05 598.45
M 294.8 673.45
L 294.8 690.7 374.25 690.7 374.25 714.2 417.7 714.2 417.7 690.7 431.2 690.7 443.6 673.45 417.7 673.45 417.7 580.95 379.1 580.95 294.8 673.45
M 374.25 615.55
L 374.25 673.45 321.45 673.45 374.25 615.55
M 739.75 580.95
L 701.15 580.95 616.85 673.45 616.85 690.7 696.3 690.7 696.3 714.2 739.75 714.2 739.75 690.7 753.25 690.7 765.65 673.45 739.75 673.45 739.75 580.95
M 696.3 615.55
L 696.3 673.45 643.5 673.45 696.3 615.55 Z"/>
</g>

<g id="Layer0_0_MEMBER_0_MEMBER_1_MEMBER_0_MEMBER_4_FILL">
<path fill="#FF4363" stroke="none" d="
M 647.2 764.25
L 642.85 764.25 642.85 785.45
Q 642.85 788.55 642.2 790.85 641.55 792.95 640.35 794.3 639.25 795.55 637.65 796.15 636.2 796.75 634.3 796.75 632.5 796.75 631.05 796.15 629.5 795.55 628.4 794.3 627.25 792.95 626.65 790.85 626 788.55 626 785.45
L 626 764.25 621.5 764.25 621.75 789.25
Q 622 791.05 622.45 792.55 622.95 794 623.65 795.2 624.3 796.4 625.2 797.3 626.3 798.5 629.25 799.9 631.45 800.7 634.3 800.7 637.15 800.7 639.4 799.9
L 641.6 798.85
Q 642.65 798.2 643.5 797.3 644.35 796.4 645.05 795.2 645.75 794 646.2 792.55 646.7 791.05 646.9 789.25
L 647.2 785.25 647.2 764.25
M 604.9 764.9
Q 603.5 764.25 602 763.95 600.4 763.6 598.75 763.6 597.05 763.6 595.5 763.95 593.95 764.25 592.6 764.9 591.15 765.5 589.95 766.45 588.75 767.35 587.75 768.55 586.7 769.75 585.95 771.2 585.15 772.65 584.6 774.35 584.05 776.05 583.75 778 583.5 779.95 583.5 782.05 583.5 784.2 583.75 786.15 584.05 788.05 584.6 789.8 585.15 791.5 585.95 793 586.7 794.45 587.75 795.65 588.75 796.9 589.95 797.8 591.15 798.75 592.6 799.4 593.95 800.05 595.5 800.35 597.1 800.7 598.75 800.7 600.4 800.7 602 800.35 603.5 800.05 604.9 799.4 606.3 798.75 607.5 797.8 608.7 796.9 609.75 795.65 610.75 794.45 611.55 793 612.35 791.5 612.9 789.8 613.45 788.05 613.7 786.15 614 784.2 614 782.05 614 779.95 613.7 778 613.45 776.05 612.9 774.35 612.35 772.65 611.55 771.2 610.75 769.75 609.75 768.55 608.7 767.35 607.5 766.45 606.3 765.5 604.9 764.9
M 603.1 768.55
Q 605.05 769.55 606.45 771.45 607.85 773.35 608.6 776 609.35 778.75 609.35 782.05 609.35 785.35 608.6 788.1 607.85 790.8 606.45 792.75 605.05 794.65 603.1 795.7 601.1 796.75 598.75 796.75 596.35 796.75 594.35 795.7 592.4 794.65 591 792.75 589.6 790.8 588.85 788.1 588.1 785.35 588.1 782.05 588.1 778.75 588.85 776 589.6 773.35 591 771.45 592.4 769.55 594.35 768.55 596.35 767.55 598.75 767.55 601.15 767.55 603.1 768.55
M 563.2 780.2
L 563.2 768.1 579.3 768.1 579.3 764.25 558.7 764.25 558.7 800.05 563.2 800.05 563.2 784 576.85 784 576.85 780.2 563.2 780.2
M 515.25 768.1
L 526.1 768.1 526.1 800.05 530.65 800.05 530.65 768.1 541.45 768.1 541.45 764.25 515.25 764.25 515.25 768.1
M 480.5 782.05
Q 480.5 784.2 480.75 786.15 481.05 788.05 481.6 789.8 482.15 791.5 482.95 793 483.7 794.45 484.75 795.65 485.75 796.9 486.95 797.8 488.15 798.75 489.6 799.4 490.95 800.05 492.5 800.35 494.1 800.7 495.75 800.7 497.4 800.7 499 800.35 500.5 800.05 501.9 799.4 503.3 798.75 504.5 797.8 505.7 796.9 506.75 795.65 507.75 794.45 508.55 793 509.35 791.5 509.9 789.8 510.45 788.05 510.7 786.15 511 784.2 511 782.05 511 779.95 510.7 778 510.45 776.05 509.9 774.35 509.35 772.65 508.55 771.2 507.75 769.75 506.75 768.55 505.7 767.35 504.5 766.45 503.3 765.5 501.9 764.9 500.5 764.25 499 763.95 497.4 763.6 495.75 763.6 494.05 763.6 492.5 763.95 490.95 764.25 489.6 764.9 488.15 765.5 486.95 766.45 485.75 767.35 484.75 768.55 483.7 769.75 482.95 771.2 482.15 772.65 481.6 774.35 481.05 776.05 480.75 778 480.5 779.95 480.5 782.05
M 485.85 788.1
Q 485.1 785.35 485.1 782.05 485.1 778.75 485.85 776 486.6 773.35 488 771.45 489.4 769.55 491.35 768.55 493.35 767.55 495.75 767.55 498.15 767.55 500.1 768.55 502.05 769.55 503.45 771.45 504.85 773.35 505.6 776 506.35 778.75 506.35 782.05 506.35 785.35 505.6 788.1 504.85 790.8 503.45 792.75 502.05 794.65 500.1 795.7 498.1 796.75 495.75 796.75 493.35 796.75 491.35 795.7 489.4 794.65 488 792.75 486.6 790.8 485.85 788.1
M 472.9 764.25
L 468.6 764.25 468.6 782.9
Q 468.95 790.6 469.15 794.2
L 468.95 794.2 452.1 764.25 447.45 764.25 447.45 800.05 451.7 800.05 451.7 781.3
Q 451.7 777.5 451.15 770.1
L 451.4 770.1 455.2 777.5 468.25 800.05 472.9 800.05 472.9 764.25
M 428.6 764.25
L 408 764.25 408 800.05 429.15 800.05 429.15 796.2 412.5 796.2 412.5 783.15 426.1 783.15 426.1 779.35 412.5 779.35 412.5 768.1 428.6 768.1 428.6 764.25
M 388.7 763.6
Q 386.95 763.6 385.3 763.95 383.65 764.25 382.15 764.9 380.65 765.5 379.4 766.45 378.05 767.4 377 768.55 375.9 769.8 375 771.25 374.15 772.7 373.55 774.45 372.95 776.15 372.65 778.1 372.35 780.05 372.35 782.2 372.35 784.35 372.65 786.35 372.95 788.25 373.5 790 374.1 791.7 374.95 793.15 375.8 794.6 376.85 795.8 377.95 797 379.2 797.9 380.5 798.8 381.95 799.45 383.45 800.05 385.05 800.35 386.65 800.7 388.45 800.7 390.2 800.7 391.85 800.4 393.45 800.05 394.9 799.5 396.3 798.95 397.5 798.2 398.6 797.45 399.5 796.55
L 399.5 781.5 387.8 781.5 387.8 785.25 395.35 785.25 395.35 794.65
Q 394.3 795.6 392.55 796.15 390.85 796.75 388.9 796.75
L 386.2 796.5
Q 384.9 796.2 383.8 795.7 381.55 794.7 380.05 792.8 378.5 790.85 377.75 788.15 376.95 785.45 376.95 782.05 376.95 779.85 377.8 776 378.6 773.4 380.2 771.5 381.75 769.55 383.95 768.55 386.15 767.55 388.8 767.55 391.35 767.55 393.4 768.55 395.05 769.4 396.55 771
L 399 768.05
Q 397.2 766.1 394.95 765 393.6 764.35 392.1 764 390.5 763.6 388.7 763.6
M 333.9 766.6
Q 332.2 765.4 329.65 764.8 327.3 764.25 324.2 764.25
L 314 764.25 314 800.05 318.5 800.05 318.5 785.85 324.4 785.85
Q 327.4 785.85 329.8 785.2 332.2 784.5 333.95 783.15 335.7 781.75 336.65 779.7 337.6 777.55 337.6 774.8 337.6 772.85 336.65 769.85 335.7 767.9 333.9 766.6
M 323.8 782.2
L 318.5 782.2 318.5 767.95 323.6 767.95
Q 326.05 767.95 327.75 768.3 329.6 768.65 330.7 769.45 331.9 770.25 332.5 771.55 333.1 772.85 333.1 774.8 333.1 776.7 332.55 778.1 331.95 779.5 330.8 780.4 329.65 781.3 327.95 781.75 326.2 782.2 323.8 782.2
M 357.2 764.25
L 352.2 764.25 340.05 800.05 344.65 800.05 348.1 789.1 361.15 789.1 364.55 800.05 369.35 800.05 357.2 764.25
M 349.2 785.55
L 350.95 780.05
Q 353.2 772.95 354.5 767.95
L 354.75 767.95
Q 356.85 775.55 358.35 780.05
L 360.05 785.55 349.2 785.55
M 700.9 764.25
L 691.95 764.25 691.95 800.05 701.1 800.05
Q 703.1 800.05 704.9 799.75 706.7 799.45 708.25 798.85 709.8 798.25 711.1 797.35 712.4 796.45 713.5 795.3 714.55 794.15 715.35 792.7 716.15 791.3 716.65 789.65 717.2 788 717.5 786.05 717.75 784.15 717.75 782.05 717.75 779.95 717.5 778 717.2 776.15 716.65 774.5 716.1 772.85 715.35 771.45 714.55 770 713.45 768.9 712.4 767.75 711.05 766.9 709.75 766 708.15 765.45 706.6 764.85 704.75 764.55 702.95 764.25 700.9 764.25
M 706.05 768.9
Q 707.2 769.35 708.2 770 709.15 770.7 709.95 771.6 711.55 773.4 712.3 776 713.1 778.65 713.1 782.05 713.1 785.45 712.3 788.1 711.55 790.75 709.95 792.55 709.15 793.5 708.2 794.2 707.2 794.9 706.05 795.4 702.6 796.35 700.5 796.35
L 696.45 796.35 696.45 767.95 700.5 767.95
Q 702.6 767.95 706.05 768.9
M 661.05 781.3
Q 661.05 777.5 660.5 770.1
L 660.75 770.1 664.55 777.5 677.6 800.05 682.25 800.05 682.25 764.25 677.95 764.25 677.95 782.9
Q 678.3 790.6 678.5 794.2
L 678.3 794.2 661.45 764.25 656.8 764.25 656.8 800.05 661.05 800.05 661.05 781.3 Z"/>
</g>

<g id="Layer0_0_MEMBER_0_MEMBER_1_MEMBER_0_MEMBER_5_FILL">
<path fill="#25D6F2" stroke="none" d="
M 639.85 764.25
L 635.5 764.25 635.5 785.45
Q 635.5 788.55 634.85 790.85 634.2 792.95 633 794.3 631.9 795.55 630.3 796.15 628.85 796.75 626.95 796.75 625.15 796.75 623.7 796.15 622.15 795.55 621.05 794.3 619.9 792.95 619.3 790.85 618.65 788.55 618.65 785.45
L 618.65 764.25 614.15 764.25 614.4 789.25
Q 614.65 791.05 615.1 792.55 615.6 794 616.3 795.2 616.95 796.4 617.85 797.3 618.95 798.5 621.9 799.9 624.1 800.7 626.95 800.7 629.8 800.7 632.05 799.9
L 634.25 798.85
Q 635.3 798.2 636.15 797.3 637 796.4 637.7 795.2 638.4 794 638.85 792.55 639.35 791.05 639.55 789.25
L 639.85 785.25 639.85 764.25
M 591.4 763.6
Q 589.7 763.6 588.15 763.95 586.6 764.25 585.25 764.9 583.8 765.5 582.6 766.45 581.4 767.35 580.4 768.55 579.35 769.75 578.6 771.2 577.8 772.65 577.25 774.35 576.7 776.05 576.4 778 576.15 779.95 576.15 782.05 576.15 784.2 576.4 786.15 576.7 788.05 577.25 789.8 577.8 791.5 578.6 793 579.35 794.45 580.4 795.65 581.4 796.9 582.6 797.8 583.8 798.75 585.25 799.4 586.6 800.05 588.15 800.35 589.75 800.7 591.4 800.7 593.05 800.7 594.65 800.35 596.15 800.05 597.55 799.4 598.95 798.75 600.15 797.8 601.35 796.9 602.4 795.65 603.4 794.45 604.2 793 605 791.5 605.55 789.8 606.1 788.05 606.35 786.15 606.65 784.2 606.65 782.05 606.65 779.95 606.35 778 606.1 776.05 605.55 774.35 605 772.65 604.2 771.2 603.4 769.75 602.4 768.55 601.35 767.35 600.15 766.45 598.95 765.5 597.55 764.9 596.15 764.25 594.65 763.95 593.05 763.6 591.4 763.6
M 581.5 776
Q 582.25 773.35 583.65 771.45 585.05 769.55 587 768.55 589 767.55 591.4 767.55 593.8 767.55 595.75 768.55 597.7 769.55 599.1 771.45 600.5 773.35 601.25 776 602 778.75 602 782.05 602 785.35 601.25 788.1 600.5 790.8 599.1 792.75 597.7 794.65 595.75 795.7 593.75 796.75 591.4 796.75 589 796.75 587 795.7 585.05 794.65 583.65 792.75 582.25 790.8 581.5 788.1 580.75 785.35 580.75 782.05 580.75 778.75 581.5 776
M 555.85 780.2
L 555.85 768.1 571.95 768.1 571.95 764.25 551.35 764.25 551.35 800.05 555.85 800.05 555.85 784 569.5 784 569.5 780.2 555.85 780.2
M 507.9 768.1
L 518.75 768.1 518.75 800.05 523.3 800.05 523.3 768.1 534.1 768.1 534.1 764.25 507.9 764.25 507.9 768.1
M 485.15 763.95
Q 483.6 764.25 482.25 764.9 480.8 765.5 479.6 766.45 478.4 767.35 477.4 768.55 476.35 769.75 475.6 771.2 474.8 772.65 474.25 774.35 473.7 776.05 473.4 778 473.15 779.95 473.15 782.05 473.15 784.2 473.4 786.15 473.7 788.05 474.25 789.8 474.8 791.5 475.6 793 476.35 794.45 477.4 795.65 478.4 796.9 479.6 797.8 480.8 798.75 482.25 799.4 483.6 800.05 485.15 800.35 486.75 800.7 488.4 800.7 490.05 800.7 491.65 800.35 493.15 800.05 494.55 799.4 495.95 798.75 497.15 797.8 498.35 796.9 499.4 795.65 500.4 794.45 501.2 793 502 791.5 502.55 789.8 503.1 788.05 503.35 786.15 503.65 784.2 503.65 782.05 503.65 779.95 503.35 778 503.1 776.05 502.55 774.35 502 772.65 501.2 771.2 500.4 769.75 499.4 768.55 498.35 767.35 497.15 766.45 495.95 765.5 494.55 764.9 493.15 764.25 491.65 763.95 490.05 763.6 488.4 763.6 486.7 763.6 485.15 763.95
M 480.65 771.45
Q 482.05 769.55 484 768.55 486 767.55 488.4 767.55 490.8 767.55 492.75 768.55 494.7 769.55 496.1 771.45 497.5 773.35 498.25 776 499 778.75 499 782.05 499 785.35 498.25 788.1 497.5 790.8 496.1 792.75 494.7 794.65 492.75 795.7 490.75 796.75 488.4 796.75 486 796.75 484 795.7 482.05 794.65 480.65 792.75 479.25 790.8 478.5 788.1 477.75 785.35 477.75 782.05 477.75 778.75 478.5 776 479.25 773.35 480.65 771.45
M 405.15 783.15
L 418.75 783.15 418.75 779.35 405.15 779.35 405.15 768.1 421.25 768.1 421.25 764.25 400.65 764.25 400.65 800.05 421.8 800.05 421.8 796.2 405.15 796.2 405.15 783.15
M 444.75 764.25
L 440.1 764.25 440.1 800.05 444.35 800.05 444.35 781.3
Q 444.35 777.5 443.8 770.1
L 444.05 770.1 447.85 777.5 460.9 800.05 465.55 800.05 465.55 764.25 461.25 764.25 461.25 782.9
Q 461.6 790.6 461.8 794.2
L 461.6 794.2 444.75 764.25
M 387.6 765
Q 386.25 764.35 384.75 764 383.15 763.6 381.35 763.6 379.6 763.6 377.95 763.95 376.3 764.25 374.8 764.9 373.3 765.5 372.05 766.45 370.7 767.4 369.65 768.55 368.55 769.8 367.65 771.25 366.8 772.7 366.2 774.45 365.6 776.15 365.3 778.1 365 780.05 365 782.2 365 784.35 365.3 786.35 365.6 788.25 366.15 790 366.75 791.7 367.6 793.15 368.45 794.6 369.5 795.8 370.6 797 371.85 797.9 373.15 798.8 374.6 799.45 376.1 800.05 377.7 800.35 379.3 800.7 381.1 800.7 382.85 800.7 384.5 800.4 386.1 800.05 387.55 799.5 388.95 798.95 390.15 798.2 391.25 797.45 392.15 796.55
L 392.15 781.5 380.45 781.5 380.45 785.25 388 785.25 388 794.65
Q 386.95 795.6 385.2 796.15 383.5 796.75 381.55 796.75
L 378.85 796.5
Q 377.55 796.2 376.45 795.7 374.2 794.7 372.7 792.8 371.15 790.85 370.4 788.15 369.6 785.45 369.6 782.05 369.6 779.85 370.45 776 371.25 773.4 372.85 771.5 374.4 769.55 376.6 768.55 378.8 767.55 381.45 767.55 384 767.55 386.05 768.55 387.7 769.4 389.2 771
L 391.65 768.05
Q 389.85 766.1 387.6 765
M 349.85 764.25
L 344.85 764.25 332.7 800.05 337.3 800.05 340.75 789.1 353.8 789.1 357.2 800.05 362 800.05 349.85 764.25
M 341.85 785.55
L 343.6 780.05
Q 345.85 772.95 347.15 767.95
L 347.4 767.95
Q 349.5 775.55 351 780.05
L 352.7 785.55 341.85 785.55
M 322.3 764.8
Q 319.95 764.25 316.85 764.25
L 306.65 764.25 306.65 800.05 311.15 800.05 311.15 785.85 317.05 785.85
Q 320.05 785.85 322.45 785.2 324.85 784.5 326.6 783.15 328.35 781.75 329.3 779.7 330.25 777.55 330.25 774.8 330.25 772.85 329.3 769.85 328.35 767.9 326.55 766.6 324.85 765.4 322.3 764.8
M 320.4 768.3
Q 322.25 768.65 323.35 769.45 324.55 770.25 325.15 771.55 325.75 772.85 325.75 774.8 325.75 776.7 325.2 778.1 324.6 779.5 323.45 780.4 322.3 781.3 320.6 781.75 318.85 782.2 316.45 782.2
L 311.15 782.2 311.15 767.95 316.25 767.95
Q 318.7 767.95 320.4 768.3
M 697.4 764.55
Q 695.6 764.25 693.55 764.25
L 684.6 764.25 684.6 800.05 693.75 800.05
Q 695.75 800.05 697.55 799.75 699.35 799.45 700.9 798.85 702.45 798.25 703.75 797.35 705.05 796.45 706.15 795.3 707.2 794.15 708 792.7 708.8 791.3 709.3 789.65 709.85 788 710.15 786.05 710.4 784.15 710.4 782.05 710.4 779.95 710.15 778 709.85 776.15 709.3 774.5 708.75 772.85 708 771.45 707.2 770 706.1 768.9 705.05 767.75 703.7 766.9 702.4 766 700.8 765.45 699.25 764.85 697.4 764.55
M 689.1 767.95
L 693.15 767.95
Q 695.25 767.95 698.7 768.9 699.85 769.35 700.85 770 701.8 770.7 702.6 771.6 704.2 773.4 704.95 776 705.75 778.65 705.75 782.05 705.75 785.45 704.95 788.1 704.2 790.75 702.6 792.55 701.8 793.5 700.85 794.2 699.85 794.9 698.7 795.4 695.25 796.35 693.15 796.35
L 689.1 796.35 689.1 767.95
M 653.7 781.3
Q 653.7 777.5 653.15 770.1
L 653.4 770.1 657.2 777.5 670.25 800.05 674.9 800.05 674.9 764.25 670.6 764.25 670.6 782.9
Q 670.95 790.6 671.15 794.2
L 670.95 794.2 654.1 764.25 649.45 764.25 649.45 800.05 653.7 800.05 653.7 781.3 Z"/>
</g>

<g id="Layer0_0_MEMBER_0_MEMBER_1_MEMBER_0_MEMBER_6_FILL">
<path fill="#FFFFFF" stroke="none" d="
M 643.05 764.25
L 638.7 764.25 638.7 785.45
Q 638.7 788.55 638.05 790.85 637.4 792.95 636.2 794.3 635.1 795.55 633.5 796.15 632.05 796.75 630.15 796.75 628.35 796.75 626.9 796.15 625.35 795.55 624.25 794.3 623.1 792.95 622.5 790.85 621.85 788.55 621.85 785.45
L 621.85 764.25 617.35 764.25 617.6 789.25
Q 617.85 791.05 618.3 792.55 618.8 794 619.5 795.2 620.15 796.4 621.05 797.3 622.15 798.5 625.1 799.9 627.3 800.7 630.15 800.7 633 800.7 635.25 799.9
L 637.45 798.85
Q 638.5 798.2 639.35 797.3 640.2 796.4 640.9 795.2 641.6 794 642.05 792.55 642.55 791.05 642.75 789.25
L 643.05 785.25 643.05 764.25
M 603.35 766.45
Q 602.15 765.5 600.75 764.9 599.35 764.25 597.85 763.95 596.25 763.6 594.6 763.6 592.9 763.6 591.35 763.95 589.8 764.25 588.45 764.9 587 765.5 585.8 766.45 584.6 767.35 583.6 768.55 582.55 769.75 581.8 771.2 581 772.65 580.45 774.35 579.9 776.05 579.6 778 579.35 779.95 579.35 782.05 579.35 784.2 579.6 786.15 579.9 788.05 580.45 789.8 581 791.5 581.8 793 582.55 794.45 583.6 795.65 584.6 796.9 585.8 797.8 587 798.75 588.45 799.4 589.8 800.05 591.35 800.35 592.95 800.7 594.6 800.7 596.25 800.7 597.85 800.35 599.35 800.05 600.75 799.4 602.15 798.75 603.35 797.8 604.55 796.9 605.6 795.65 606.6 794.45 607.4 793 608.2 791.5 608.75 789.8 609.3 788.05 609.55 786.15 609.85 784.2 609.85 782.05 609.85 779.95 609.55 778 609.3 776.05 608.75 774.35 608.2 772.65 607.4 771.2 606.6 769.75 605.6 768.55 604.55 767.35 603.35 766.45
M 584.7 776
Q 585.45 773.35 586.85 771.45 588.25 769.55 590.2 768.55 592.2 767.55 594.6 767.55 597 767.55 598.95 768.55 600.9 769.55 602.3 771.45 603.7 773.35 604.45 776 605.2 778.75 605.2 782.05 605.2 785.35 604.45 788.1 603.7 790.8 602.3 792.75 600.9 794.65 598.95 795.7 596.95 796.75 594.6 796.75 592.2 796.75 590.2 795.7 588.25 794.65 586.85 792.75 585.45 790.8 584.7 788.1 583.95 785.35 583.95 782.05 583.95 778.75 584.7 776
M 559.05 780.2
L 559.05 768.1 575.15 768.1 575.15 764.25 554.55 764.25 554.55 800.05 559.05 800.05 559.05 784 572.7 784 572.7 780.2 559.05 780.2
M 511.1 768.1
L 521.95 768.1 521.95 800.05 526.5 800.05 526.5 768.1 537.3 768.1 537.3 764.25 511.1 764.25 511.1 768.1
M 447.55 781.3
Q 447.55 777.5 447 770.1
L 447.25 770.1 451.05 777.5 464.1 800.05 468.75 800.05 468.75 764.25 464.45 764.25 464.45 782.9
Q 464.8 790.6 465 794.2
L 464.8 794.2 447.95 764.25 443.3 764.25 443.3 800.05 447.55 800.05 447.55 781.3
M 485.45 764.9
Q 484 765.5 482.8 766.45 481.6 767.35 480.6 768.55 479.55 769.75 478.8 771.2 478 772.65 477.45 774.35 476.9 776.05 476.6 778 476.35 779.95 476.35 782.05 476.35 784.2 476.6 786.15 476.9 788.05 477.45 789.8 478 791.5 478.8 793 479.55 794.45 480.6 795.65 481.6 796.9 482.8 797.8 484 798.75 485.45 799.4 486.8 800.05 488.35 800.35 489.95 800.7 491.6 800.7 493.25 800.7 494.85 800.35 496.35 800.05 497.75 799.4 499.15 798.75 500.35 797.8 501.55 796.9 502.6 795.65 503.6 794.45 504.4 793 505.2 791.5 505.75 789.8 506.3 788.05 506.55 786.15 506.85 784.2 506.85 782.05 506.85 779.95 506.55 778 506.3 776.05 505.75 774.35 505.2 772.65 504.4 771.2 503.6 769.75 502.6 768.55 501.55 767.35 500.35 766.45 499.15 765.5 497.75 764.9 496.35 764.25 494.85 763.95 493.25 763.6 491.6 763.6 489.9 763.6 488.35 763.95 486.8 764.25 485.45 764.9
M 481.7 776
Q 482.45 773.35 483.85 771.45 485.25 769.55 487.2 768.55 489.2 767.55 491.6 767.55 494 767.55 495.95 768.55 497.9 769.55 499.3 771.45 500.7 773.35 501.45 776 502.2 778.75 502.2 782.05 502.2 785.35 501.45 788.1 500.7 790.8 499.3 792.75 497.9 794.65 495.95 795.7 493.95 796.75 491.6 796.75 489.2 796.75 487.2 795.7 485.25 794.65 483.85 792.75 482.45 790.8 481.7 788.1 480.95 785.35 480.95 782.05 480.95 778.75 481.7 776
M 424.45 768.1
L 424.45 764.25 403.85 764.25 403.85 800.05 425 800.05 425 796.2 408.35 796.2 408.35 783.15 421.95 783.15 421.95 779.35 408.35 779.35 408.35 768.1 424.45 768.1
M 390.8 765
Q 389.45 764.35 387.95 764 386.35 763.6 384.55 763.6 382.8 763.6 381.15 763.95 379.5 764.25 378 764.9 376.5 765.5 375.25 766.45 373.9 767.4 372.85 768.55 371.75 769.8 370.85 771.25 370 772.7 369.4 774.45 368.8 776.15 368.5 778.1 368.2 780.05 368.2 782.2 368.2 784.35 368.5 786.35 368.8 788.25 369.35 790 369.95 791.7 370.8 793.15 371.65 794.6 372.7 795.8 373.8 797 375.05 797.9 376.35 798.8 377.8 799.45 379.3 800.05 380.9 800.35 382.5 800.7 384.3 800.7 386.05 800.7 387.7 800.4 389.3 800.05 390.75 799.5 392.15 798.95 393.35 798.2 394.45 797.45 395.35 796.55
L 395.35 781.5 383.65 781.5 383.65 785.25 391.2 785.25 391.2 794.65
Q 390.15 795.6 388.4 796.15 386.7 796.75 384.75 796.75
L 382.05 796.5
Q 380.75 796.2 379.65 795.7 377.4 794.7 375.9 792.8 374.35 790.85 373.6 788.15 372.8 785.45 372.8 782.05 372.8 779.85 373.65 776 374.45 773.4 376.05 771.5 377.6 769.55 379.8 768.55 382 767.55 384.65 767.55 387.2 767.55 389.25 768.55 390.9 769.4 392.4 771
L 394.85 768.05
Q 393.05 766.1 390.8 765
M 353.05 764.25
L 348.05 764.25 335.9 800.05 340.5 800.05 343.95 789.1 357 789.1 360.4 800.05 365.2 800.05 353.05 764.25
M 345.05 785.55
L 346.8 780.05
Q 349.05 772.95 350.35 767.95
L 350.6 767.95
Q 352.7 775.55 354.2 780.05
L 355.9 785.55 345.05 785.55
M 320.05 764.25
L 309.85 764.25 309.85 800.05 314.35 800.05 314.35 785.85 320.25 785.85
Q 323.25 785.85 325.65 785.2 328.05 784.5 329.8 783.15 331.55 781.75 332.5 779.7 333.45 777.55 333.45 774.8 333.45 772.85 332.5 769.85 331.55 767.9 329.75 766.6 328.05 765.4 325.5 764.8 323.15 764.25 320.05 764.25
M 319.65 782.2
L 314.35 782.2 314.35 767.95 319.45 767.95
Q 321.9 767.95 323.6 768.3 325.45 768.65 326.55 769.45 327.75 770.25 328.35 771.55 328.95 772.85 328.95 774.8 328.95 776.7 328.4 778.1 327.8 779.5 326.65 780.4 325.5 781.3 323.8 781.75 322.05 782.2 319.65 782.2
M 700.6 764.55
Q 698.8 764.25 696.75 764.25
L 687.8 764.25 687.8 800.05 696.95 800.05
Q 698.95 800.05 700.75 799.75 702.55 799.45 704.1 798.85 705.65 798.25 706.95 797.35 708.25 796.45 709.35 795.3 710.4 794.15 711.2 792.7 712 791.3 712.5 789.65 713.05 788 713.35 786.05 713.6 784.15 713.6 782.05 713.6 779.95 713.35 778 713.05 776.15 712.5 774.5 711.95 772.85 711.2 771.45 710.4 770 709.3 768.9 708.25 767.75 706.9 766.9 705.6 766 704 765.45 702.45 764.85 700.6 764.55
M 705.8 771.6
Q 707.4 773.4 708.15 776 708.95 778.65 708.95 782.05 708.95 785.45 708.15 788.1 707.4 790.75 705.8 792.55 705 793.5 704.05 794.2 703.05 794.9 701.9 795.4 698.45 796.35 696.35 796.35
L 692.3 796.35 692.3 767.95 696.35 767.95
Q 698.45 767.95 701.9 768.9 703.05 769.35 704.05 770 705 770.7 705.8 771.6
M 656.9 781.3
Q 656.9 777.5 656.35 770.1
L 656.6 770.1 660.4 777.5 673.45 800.05 678.1 800.05 678.1 764.25 673.8 764.25 673.8 782.9
Q 674.15 790.6 674.35 794.2
L 674.15 794.2 657.3 764.25 652.65 764.25 652.65 800.05 656.9 800.05 656.9 781.3 Z"/>
</g>

<g id="Layer0_0_MEMBER_0_MEMBER_1_MEMBER_0_MEMBER_7_FILL">
<path fill="#FFFFFF" stroke="none" d="
M 573.4 714.2
L 573.4 580.95 437.2 580.95 437.2 714.2 573.4 714.2
M 483.15 696.25
L 483.15 598.45 526.85 598.45 526.85 696.25 483.15 696.25
M 269.9 673.45
L 269.9 690.7 349.35 690.7 349.35 714.2 392.8 714.2 392.8 690.7 406.3 690.7 418.7 673.45 392.8 673.45 392.8 580.95 354.2 580.95 269.9 673.45
M 349.35 615.55
L 349.35 673.45 296.55 673.45 349.35 615.55
M 714.85 580.95
L 676.25 580.95 591.95 673.45 591.95 690.7 671.4 690.7 671.4 714.2 714.85 714.2 714.85 690.7 728.35 690.7 740.75 673.45 714.85 673.45 714.85 580.95
M 671.4 615.55
L 671.4 673.45 618.6 673.45 671.4 615.55 Z"/>
</g>

<g id="Layer0_0_MEMBER_0_MEMBER_1_MEMBER_1_FILL">
<path fill="#FFFFFF" stroke="none" d="
M 114.15 258
L 114.15 265.35 161.6 265.35 161.6 258 114.15 258 Z"/>
</g>

<g id="Layer0_0_MEMBER_0_MEMBER_1_MEMBER_2_FILL">
<path fill="#FFFFFF" stroke="none" d="
M 114.15 284.2
L 114.15 291.55 145.3 291.55 145.3 284.2 114.15 284.2 Z"/>
</g>

<g id="Layer0_0_MEMBER_0_MEMBER_1_MEMBER_3_FILL">
<path fill="#FFFFFF" stroke="none" d="
M 134.4 313.9
L 134.4 306.55 103.3 306.55 103.3 313.9 134.4 313.9 Z"/>
</g>

<g id="Layer0_0_MEMBER_0_MEMBER_1_MEMBER_4_FILL">
<path fill="#FFFFFF" stroke="none" d="
M 363.45 261.65
L 363.45 254.3 332.35 254.3 332.35 261.65 363.45 261.65 Z"/>
</g>

<g id="Layer0_0_MEMBER_0_MEMBER_1_MEMBER_5_FILL">
<path fill="#FFFFFF" stroke="none" d="
M 385.5 291.55
L 354.35 291.55 354.35 298.9 385.5 298.9 385.5 291.55 Z"/>
</g>

<g id="Layer0_0_MEMBER_0_MEMBER_1_MEMBER_6_FILL">
<path fill="#FFFFFF" stroke="none" d="
M 380.7 334.3
L 380.7 326.95 349.6 326.95 349.6 334.3 380.7 334.3 Z"/>
</g>

<g id="Layer0_0_MEMBER_0_MEMBER_1_MEMBER_7_FILL">
<path fill="#FF4363" stroke="none" d="
M 355.8 278.1
L 355.8 270.75 324.65 270.75 324.65 278.1 355.8 278.1 Z"/>
</g>

<g id="Layer0_0_MEMBER_0_MEMBER_1_MEMBER_8_FILL">
<path fill="#FF4363" stroke="none" d="
M 265.65 259.2
L 265.65 266.55 296.8 266.55 296.8 259.2 265.65 259.2 Z"/>
</g>

<g id="Layer0_0_MEMBER_0_MEMBER_1_MEMBER_9_FILL">
<path fill="#25D6F2" stroke="none" d="
M 120.95 270.75
L 120.95 278.1 152.05 278.1 152.05 270.75 120.95 270.75 Z"/>
</g>

<g id="Layer0_0_MEMBER_0_MEMBER_1_MEMBER_10_FILL">
<path fill="#25D6F2" stroke="none" d="
M 147 329.8
L 147 337.15 178.15 337.15 178.15 329.8 147 329.8 Z"/>
</g>

<g id="Layer0_0_MEMBER_0_MEMBER_1_MEMBER_11_FILL">
<path fill="#25D6F2" stroke="none" d="
M 197.35 270.75
L 197.35 278.1 228.5 278.1 228.5 270.75 197.35 270.75 Z"/>
</g>

<g id="Layer0_0_MEMBER_1_MEMBER_0_FILL">
<path fill="#FFFFFF" stroke="none" d="
M 47 94.6
L 7 94.6 7 108 47 108 47 94.6 Z"/>
</g>

<g id="Layer0_0_MEMBER_1_MEMBER_1_FILL">
<path fill="#FFFFFF" stroke="none" d="
M 463.65 196.75
L 404 196.75 404 210.15 463.65 210.15 463.65 196.75 Z"/>
</g>

<g id="Layer0_0_MEMBER_1_MEMBER_2_FILL">
<path fill="#FFFFFF" stroke="none" d="
M 67 359.55
L 67 346.15 18.1 346.15 18.1 359.55 67 359.55 Z"/>
</g>

<g id="Layer0_0_MEMBER_1_MEMBER_3_FILL">
<path fill="#FF4363" stroke="none" d="
M 449 153.75
L 449 146.1 414.95 146.1 414.95 153.75 449 153.75 Z"/>
</g>

<g id="Layer0_0_MEMBER_1_MEMBER_4_FILL">
<path fill="#FFB4C0" stroke="none" d="
M 34.05 7.65
L 34.05 0 0 0 0 7.65 34.05 7.65 Z"/>
</g>

<g id="Layer0_0_MEMBER_1_MEMBER_5_FILL">
<path fill="#FFB4C0" stroke="none" d="
M 34 7.65
L 34 0 0 0 0 7.65 34 7.65 Z"/>
</g>

<g id="Layer0_0_MEMBER_1_MEMBER_6_FILL">
<path fill="#25D6F2" stroke="none" d="
M 481.5 282.1
L 481.5 274.05 445.85 274.05 445.85 282.1 481.5 282.1 Z"/>
</g>

<g id="Layer0_0_MEMBER_1_MEMBER_7_FILL">
<path fill="#25D6F2" stroke="none" d="
M 409.7 98.6
L 409.7 90.6 374 90.6 374 98.6 409.7 98.6 Z"/>
</g>

<g id="Layer0_0_MEMBER_1_MEMBER_8_FILL">
<path fill="#25D6F2" stroke="none" d="
M 21.3 255.2
L 21.3 263.25 57 263.25 57 255.2 21.3 255.2 Z"/>
</g>

<g id="Layer0_0_MEMBER_1_MEMBER_9_FILL">
<path fill="#A8EFFA" stroke="none" d="
M 35.7 8
L 35.7 0 0 0 0 8 35.7 8 Z"/>
</g>
</defs>

<g transform="matrix( 1.9199066162109375, 0, 0, 1.9199066162109375, 380,246.1) ">
<use xlink:href="#Layer0_0_MEMBER_0_MEMBER_0_MEMBER_0_MEMBER_0_MEMBER_0_FILL"/>
</g>

<g transform="matrix( 1.9199066162109375, 0, 0, 1.9199066162109375, 43.05,95.65) ">
<use xlink:href="#Layer0_0_MEMBER_0_MEMBER_0_MEMBER_0_MEMBER_1_MEMBER_0_FILL"/>
</g>

<g transform="matrix( 1.9199066162109375, 0, 0, 1.9199066162109375, 456.3,233.2) ">
<use xlink:href="#Layer0_0_MEMBER_0_MEMBER_0_MEMBER_0_MEMBER_2_MEMBER_0_FILL"/>
</g>

<g transform="matrix( 1.9199066162109375, 0, 0, 1.9199066162109375, 43.05,95.65) ">
<use xlink:href="#Layer0_0_MEMBER_0_MEMBER_0_MEMBER_0_MEMBER_3_MEMBER_0_FILL"/>
</g>

<g transform="matrix( 1.9199066162109375, 0, 0, 1.9199066162109375, 43.05,95.65) ">
<use xlink:href="#Layer0_0_MEMBER_0_MEMBER_0_MEMBER_0_MEMBER_4_MEMBER_0_FILL"/>
</g>

<g transform="matrix( 1.9199066162109375, 0, 0, 1.9199066162109375, 43.05,95.65) ">
<use xlink:href="#Layer0_0_MEMBER_0_MEMBER_0_MEMBER_0_MEMBER_5_MEMBER_0_FILL"/>
</g>

<g transform="matrix( 1.9199066162109375, 0, 0, 1.9199066162109375, 43.05,95.65) ">
<use xlink:href="#Layer0_0_MEMBER_0_MEMBER_0_MEMBER_0_MEMBER_6_FILL"/>
</g>

<g transform="matrix( 1.9199066162109375, 0, 0, 1.9199066162109375, 43.05,95.65) ">
<use xlink:href="#Layer0_0_MEMBER_0_MEMBER_0_MEMBER_0_MEMBER_7_FILL"/>
</g>

<g transform="matrix( 1.9199066162109375, 0, 0, 1.9199066162109375, 43.05,95.65) ">
<use xlink:href="#Layer0_0_MEMBER_0_MEMBER_0_MEMBER_1_FILL"/>
</g>

<g transform="matrix( 1.9199066162109375, 0, 0, 1.9199066162109375, 43.05,95.65) ">
<use xlink:href="#Layer0_0_MEMBER_0_MEMBER_0_MEMBER_2_FILL"/>
</g>

<g transform="matrix( 1.9199066162109375, 0, 0, 1.9199066162109375, 43.05,95.65) ">
<use xlink:href="#Layer0_0_MEMBER_0_MEMBER_0_MEMBER_3_FILL"/>
</g>

<g transform="matrix( 1.9199066162109375, 0, 0, 1.9199066162109375, 43.05,95.65) ">
<use xlink:href="#Layer0_0_MEMBER_0_MEMBER_0_MEMBER_4_FILL"/>
</g>

<g transform="matrix( 1.9199066162109375, 0, 0, 1.9199066162109375, 43.05,95.65) ">
<use xlink:href="#Layer0_0_MEMBER_0_MEMBER_0_MEMBER_5_FILL"/>
</g>

<g transform="matrix( 1.9199066162109375, 0, 0, 1.9199066162109375, 43.05,95.65) ">
<use xlink:href="#Layer0_0_MEMBER_0_MEMBER_0_MEMBER_6_FILL"/>
</g>

<g transform="matrix( 1.9199066162109375, 0, 0, 1.9199066162109375, 43.05,95.65) ">
<use xlink:href="#Layer0_0_MEMBER_0_MEMBER_0_MEMBER_7_FILL"/>
</g>

<g transform="matrix( 1.9199066162109375, 0, 0, 1.9199066162109375, 43.05,95.65) ">
<use xlink:href="#Layer0_0_MEMBER_0_MEMBER_0_MEMBER_8_FILL"/>
</g>

<g transform="matrix( 1.9199066162109375, 0, 0, 1.9199066162109375, 43.05,95.65) ">
<use xlink:href="#Layer0_0_MEMBER_0_MEMBER_0_MEMBER_9_FILL"/>
</g>

<g transform="matrix( 1.9199066162109375, 0, 0, 1.9199066162109375, 43.05,95.65) ">
<use xlink:href="#Layer0_0_MEMBER_0_MEMBER_0_MEMBER_10_FILL"/>
</g>

<g transform="matrix( 1.9199066162109375, 0, 0, 1.9199066162109375, 43.05,95.65) ">
<use xlink:href="#Layer0_0_MEMBER_0_MEMBER_0_MEMBER_11_FILL"/>
</g>

<g transform="matrix( 1.9199066162109375, 0, 0, 1.9199066162109375, 43.05,95.65) ">
<use xlink:href="#Layer0_0_MEMBER_0_MEMBER_0_MEMBER_12_FILL"/>
</g>

<g transform="matrix( 1.9199066162109375, 0, 0, 1.9199066162109375, 43.05,95.65) ">
<use xlink:href="#Layer0_0_MEMBER_0_MEMBER_0_MEMBER_13_FILL"/>
</g>

<g transform="matrix( 1.9199066162109375, 0, 0, 1.9199066162109375, 43.05,95.65) ">
<use xlink:href="#Layer0_0_MEMBER_0_MEMBER_0_MEMBER_14_FILL"/>
</g>

<g transform="matrix( 1.9199066162109375, 0, 0, 1.9199066162109375, 43.05,95.65) ">
<use xlink:href="#Layer0_0_MEMBER_0_MEMBER_0_MEMBER_15_FILL"/>
</g>

<g transform="matrix( 1.9199066162109375, 0, 0, 1.9199066162109375, 43.05,95.65) ">
<use xlink:href="#Layer0_0_MEMBER_0_MEMBER_0_MEMBER_16_FILL"/>
</g>

<g transform="matrix( 1, 0, 0, 1, 0,0) ">
<use xlink:href="#Layer0_0_MEMBER_0_MEMBER_1_MEMBER_0_MEMBER_0_FILL"/>
</g>

<g transform="matrix( 1, 0, 0, 1, 0,0) ">
<use xlink:href="#Layer0_0_MEMBER_0_MEMBER_1_MEMBER_0_MEMBER_1_FILL"/>
</g>

<g transform="matrix( 1, 0, 0, 1, 0,0) ">
<use xlink:href="#Layer0_0_MEMBER_0_MEMBER_1_MEMBER_0_MEMBER_2_FILL"/>
</g>

<g transform="matrix( 1, 0, 0, 1, 0,0) ">
<use xlink:href="#Layer0_0_MEMBER_0_MEMBER_1_MEMBER_0_MEMBER_3_FILL"/>
</g>

<g transform="matrix( 1, 0, 0, 1, 0,0) ">
<use xlink:href="#Layer0_0_MEMBER_0_MEMBER_1_MEMBER_0_MEMBER_4_FILL"/>
</g>

<g transform="matrix( 1, 0, 0, 1, 0,0) ">
<use xlink:href="#Layer0_0_MEMBER_0_MEMBER_1_MEMBER_0_MEMBER_5_FILL"/>
</g>

<g transform="matrix( 1, 0, 0, 1, 0,0) ">
<use xlink:href="#Layer0_0_MEMBER_0_MEMBER_1_MEMBER_0_MEMBER_6_FILL"/>
</g>

<g transform="matrix( 1, 0, 0, 1, 0,0) ">
<use xlink:href="#Layer0_0_MEMBER_0_MEMBER_1_MEMBER_0_MEMBER_7_FILL"/>
</g>

<g transform="matrix( 1.9199066162109375, 0, 0, 1.9199066162109375, 74.7,95.65) ">
<use xlink:href="#Layer0_0_MEMBER_0_MEMBER_1_MEMBER_1_FILL"/>
</g>

<g transform="matrix( 1.9199066162109375, 0, 0, 1.9199066162109375, 74.7,95.65) ">
<use xlink:href="#Layer0_0_MEMBER_0_MEMBER_1_MEMBER_2_FILL"/>
</g>

<g transform="matrix( 1.9199066162109375, 0, 0, 1.9199066162109375, 74.7,95.65) ">
<use xlink:href="#Layer0_0_MEMBER_0_MEMBER_1_MEMBER_3_FILL"/>
</g>

<g transform="matrix( 1.9199066162109375, 0, 0, 1.9199066162109375, 74.7,95.65) ">
<use xlink:href="#Layer0_0_MEMBER_0_MEMBER_1_MEMBER_4_FILL"/>
</g>

<g transform="matrix( 1.9199066162109375, 0, 0, 1.9199066162109375, 74.7,95.65) ">
<use xlink:href="#Layer0_0_MEMBER_0_MEMBER_1_MEMBER_5_FILL"/>
</g>

<g transform="matrix( 1.9199066162109375, 0, 0, 1.9199066162109375, 74.7,95.65) ">
<use xlink:href="#Layer0_0_MEMBER_0_MEMBER_1_MEMBER_6_FILL"/>
</g>

<g transform="matrix( 1.9199066162109375, 0, 0, 1.9199066162109375, 74.7,95.65) ">
<use xlink:href="#Layer0_0_MEMBER_0_MEMBER_1_MEMBER_7_FILL"/>
</g>

<g transform="matrix( 1.9199066162109375, 0, 0, 1.9199066162109375, 74.7,95.65) ">
<use xlink:href="#Layer0_0_MEMBER_0_MEMBER_1_MEMBER_8_FILL"/>
</g>

<g transform="matrix( 1.9199066162109375, 0, 0, 1.9199066162109375, 74.7,95.65) ">
<use xlink:href="#Layer0_0_MEMBER_0_MEMBER_1_MEMBER_9_FILL"/>
</g>

<g transform="matrix( 1.9199066162109375, 0, 0, 1.9199066162109375, 74.7,95.65) ">
<use xlink:href="#Layer0_0_MEMBER_0_MEMBER_1_MEMBER_10_FILL"/>
</g>

<g transform="matrix( 1.9199066162109375, 0, 0, 1.9199066162109375, 74.7,95.65) ">
<use xlink:href="#Layer0_0_MEMBER_0_MEMBER_1_MEMBER_11_FILL"/>
</g>

<g transform="matrix( 1.9199066162109375, 0, 0, 1.9199066162109375, 43.05,95.65) ">
<use xlink:href="#Layer0_0_MEMBER_1_MEMBER_0_FILL"/>
</g>

<g transform="matrix( 1.9199066162109375, 0, 0, 1.9199066162109375, 43.05,95.65) ">
<use xlink:href="#Layer0_0_MEMBER_1_MEMBER_1_FILL"/>
</g>

<g transform="matrix( 1.9199066162109375, 0, 0, 1.9199066162109375, 43.05,95.65) ">
<use xlink:href="#Layer0_0_MEMBER_1_MEMBER_2_FILL"/>
</g>

<g transform="matrix( 1.9199066162109375, 0, 0, 1.9199066162109375, 43.05,95.65) ">
<use xlink:href="#Layer0_0_MEMBER_1_MEMBER_3_FILL"/>
</g>

<g transform="matrix( 1.9199066162109375, 0, 0, 1.9199066162109375, 100.65,416.4) ">
<use xlink:href="#Layer0_0_MEMBER_1_MEMBER_4_FILL"/>
</g>

<g transform="matrix( 1.9199066162109375, 0, 0, 1.9199066162109375, 866.35,774.1) ">
<use xlink:href="#Layer0_0_MEMBER_1_MEMBER_5_FILL"/>
</g>

<g transform="matrix( 1.9199066162109375, 0, 0, 1.9199066162109375, 43.05,95.65) ">
<use xlink:href="#Layer0_0_MEMBER_1_MEMBER_6_FILL"/>
</g>

<g transform="matrix( 1.9199066162109375, 0, 0, 1.9199066162109375, 43.05,95.65) ">
<use xlink:href="#Layer0_0_MEMBER_1_MEMBER_7_FILL"/>
</g>

<g transform="matrix( 1.9199066162109375, 0, 0, 1.9199066162109375, 43.05,95.65) ">
<use xlink:href="#Layer0_0_MEMBER_1_MEMBER_8_FILL"/>
</g>

<g transform="matrix( 1.9199066162109375, 0, 0, 1.9199066162109375, 214.55,333.3) ">
<use xlink:href="#Layer0_0_MEMBER_1_MEMBER_9_FILL"/>
</g>
</svg>
