<svg viewBox="0 0 1620 1028" xmlns="http://www.w3.org/2000/svg"><g id="a"></g><g id="b"><g id="c"><g><path fill="#e8f2fa" d="M151.69,1025.23S-58.04,815.1,15.72,570.15c48.18-159.99,207.94-63.06,199.43-322.43C206.65-11.66,685.87-38.61,818.74,36.64c132.87,75.25,135.68,123.33,410.03,93.44,274.36-29.88,393.75,198.16,251.61,389.75-124.48,167.77,281,150.94,39.96,505.86l-1368.65-.47Z"></path><path fill="#dceaff" d="M662.79,321.37l23.91-2.49c1.99-.19,3.93,.67,5.02,2.22,1.38,1.99,2.87,3.94,4.45,5.84,2.94,3.55,6.09,6.82,9.47,9.78,1.58,1.39,2.1,3.5,1.3,5.35l-9.17,21.66c-1,2.3,.1,4.95,2.54,6.06l20.6,9.44c2.34,1.06,5.14,.33,6.55-1.68l12.46-18.06c1.17-1.78,3.5-2.61,5.74-2.05,9.46,2.31,19.31,3.22,29.16,2.69,2.38-.13,4.59,1.3,5.3,3.4l4.22,12.43c.83,2.35,3.43,3.81,6.08,3.34l22.37-4.19c.46-.08,.89-.2,1.29-.4,1.94-.86,3.13-2.81,2.86-4.85l-1.99-16.53-.49-4.03c3.72-1.94,7.37-4.16,10.85-6.63,4.69-3.33,8.95-7,12.73-10.9,1.45-1.49,3.71-2.02,5.72-1.28l18.85,6.85c2.58,.92,5.5-.11,6.71-2.4l7.8-14.57,2.22-4.18c1.22-2.28,.4-5.06-1.91-6.42l-16.3-9.64c-1.9-1.1-2.84-3.19-2.3-5.17,1.52-5.95,2.37-12.03,2.48-18.11,.06-.53,.05-1.02,.05-1.54-.01-.17,.01-.35,.04-.52,.2-1.95,1.67-3.57,3.7-4.16l21.8-6.39c.25-.06,.49-.16,.71-.26,2.12-.95,3.33-3.16,2.88-5.35l-4.48-20.64c-.54-2.49-3.04-4.18-5.79-3.91l-24.94,2.61c-2.11,.24-4.14-.76-5.15-2.5-2.25-3.79-4.85-7.49-7.81-11.05-1.57-1.89-3.2-3.7-4.9-5.43-1.37-1.41-1.78-3.42-1.02-5.18l8.81-20.82c.98-2.29-.11-4.92-2.51-6.02l-20.39-9.31c-2.46-1.13-5.45-.39-6.96,1.79l-9.86,14.28c-1.32,1.92-3.85,2.74-6.17,2.02-9.06-2.91-18.56-4.46-28.13-4.67-2.26-.02-4.27-1.4-4.96-3.43l-6.21-18.18c-.83-2.44-3.53-3.89-6.24-3.41l-22.23,4.12c-2.67,.49-4.48,2.81-4.16,5.28l.11,.97,2.32,19.2c.25,2.06-.89,4-2.88,4.95h-.02c-4.76,2.29-9.38,4.99-13.79,8.12-2.35,1.67-4.57,3.43-6.72,5.26-1.48,1.29-3.61,1.67-5.5,.99l-19.14-6.96c-2.62-.96-5.6,.11-6.82,2.43l-10.03,18.78c-.28,.54-.44,1.11-.52,1.65-.2,1.79,.7,3.64,2.41,4.66l13.04,7.67c1.59,.96,2.51,2.63,2.44,4.33-.03,.45-.11,.9-.27,1.35-3.97,10.78-5.55,22.15-4.7,33.52,.18,1.93-.98,3.73-2.79,4.61-.26,.12-.54,.23-.83,.31l-17.66,5.16c-2.56,.75-4.1,3.16-3.59,5.61l.1,.48,4.34,20.12c.58,2.53,3.11,4.22,5.88,3.94Zm152.95-62.81c1.37,3.16,2.47,6.57,3.25,10.22,1.46,6.95-.06,17.92-3.46,24.28-.36,.68-.73,1.35-1.11,2.01-23.39,40.18-84.71,32.19-94.81-13.15-1.31-5.93-.49-14.56,1.8-21.17,.55-1.53,1.15-2.96,1.83-4.18,3.12-5.77,6.99-10.6,11.41-14.53,25.18-22.38,67.26-15.05,81.1,16.52Z"></path><path fill="#dceaff" d="M1421.92,243.9c-22.95-42.8-102.42-13.5-102.42-13.5,0,0-39.02,89.45-54.91,94.33-15.89,4.88,17.22-82.51,17.22-82.51-32.18,2.98-104.96,53.58-104.96,53.58,0,0,24.92,91.41,8.22,92.53-16.7,1.11-17.6-81.99-17.6-81.99-28.73,14.1-50.17,52.32-50.17,52.32-24.12,60.27,60.77,85.8,60.77,85.8,0,0,7.9,31.85-5.6,72.54h0s-3.37,7.67-5.8,20.11l8.33-1.53c.24-2.19,.56-4.33,.98-6.4,0-.01,0-.03,0-.04,0-.03,.01-.06,.02-.09,.31-1.3,.77-3.14,1.35-5.39h0s0-.01,0-.02c1.56-5.08,2.54-8.8,3.1-11.46,0,0,0-.02,0-.02,4.52-15.87,11.46-36.74,17.93-42.04,0,0-1.18-1.03-2.54-3.21,.81,1.02,1.66,2.09,2.54,3.21,20.33,25.65,92.64,17.26,130.74,2.42,38.1-14.84,18.56-22.02-6.44-34.92-25-12.89-68.86-.22-83.52-4.38-14.66-4.16,3.28-14.32,30.16-17.3,26.89-2.98,45.39,19.08,88.98,14.99,43.59-4.09,60.19-84.53,60.19-84.53-27.72,13.91-83.92,8.57-87.98-.48-4.06-9.05,74.57-22.52,86.18-27.6,11.62-5.07,28.15-31.62,5.2-74.42Z"></path><path fill="#dceaff" d="M110.78,572.86c-9.34-46.99,73.25-67.59,73.25-67.59,0,0,89.17,49.98,105.06,45.08,15.88-4.9-67.22-56.51-67.22-56.51,27.69-15.46,118.72-15.29,118.72-15.29,0,0,39.25,87,53.34,78.63,14.09-8.37-39-75.4-39-75.4,32.13-4.64,74.05,14.07,74.05,14.07,58.34,34.88,6.92,102.39,6.92,102.39,0,0,14.31,29.88,51.46,54.97h0s7.67,4.28,17.67,12.88l-7.66,3.39c-1.61-1.62-3.25-3.16-4.93-4.58,0-.01-.02-.02-.03-.03-.02-.02-.05-.04-.07-.06-1.09-.86-2.65-2.09-4.57-3.57h0s0,0,0-.01c-4.53-3.2-7.73-5.63-9.9-7.45,0,0-.01-.01-.02-.02-13.9-10.2-32.97-23.07-41.59-23.72,0,0,.28-1.48-.04-3.98,.01,1.27,.03,2.59,.04,3.98,.34,31.81-62.99,65.17-103.11,74.42-40.12,9.24-29.12-7.34-17.46-31.52,11.67-24.18,54.99-38.35,64.03-49.81,9.04-11.46-11.9-9.64-35.35,2.87-23.46,12.52-23.98,40.44-61.52,61.33-37.55,20.89-102.94-34.3-102.94-34.3,31.2-4.23,72.73-39.66,70.12-49.16-2.61-9.5-74.28,23.31-86.87,25.69-12.58,2.38-43.01-9.71-52.36-56.7Z"></path><path fill="#dceaff" d="M1470.91,874.46c40.64-29.47-6.48-95.53-6.48-95.53,0,0-102.59-17.21-110.98-30.62-8.39-13.41,90.82-1.13,90.82-1.13-9.68-28.55-77.99-84.22-77.99-84.22,0,0-91.7,41.12-96.26,26.21-4.56-14.91,83.2-32.58,83.2-32.58-20.75-23.17-65.55-34.84-65.55-34.84-68.67-9.63-78.49,72.46-78.49,72.46,0,0-32.11,13.62-77.9,9.64h0s-8.8-1.5-22.46-1.18l3.31,7.24c2.37-.23,4.69-.37,6.97-.41,.02,0,.03,0,.04,0,.03,0,.07,0,.1,0,1.44,.02,3.48,.06,5.98,.13h0s0,0,.01,0c5.69,.38,9.83,.52,12.76,.49,0,0,.02,0,.03,0,17.71,.88,41.21,2.93,48.14,7.72,0,0,.85-1.28,2.88-2.95-.92,.94-1.88,1.92-2.88,2.95-23.02,23.62,.52,87.43,23.96,118.94,23.43,31.51,27.07,12.35,35.65-12.91,8.58-25.27-13.73-62.44-12.3-76.56,1.43-14.12,15.82,.07,24.43,23.82,8.61,23.75-10.99,44.99,2.18,83.65,13.17,38.66,101.67,37.39,101.67,37.39-20.34-22.29-26.09-74.29-17.33-79.8,8.75-5.51,38.96,62.99,46.68,72.49,7.72,9.49,39.17,19.09,79.82-10.39Z"></path><g><path opacity=".5" fill="#bfdcff" d="M1101.94,321.29s4.77-88.04,49.25-143.23c5.91-7.33,18.54-3.71,19.01,5.43,0,.15,.01,.31,.02,.46,.53,15.62-48.72,84.77-68.28,137.34Z"></path><path opacity=".5" fill="#bfdcff" d="M1097.93,346.66s40.06-112.21,118.78-165.73c4.8-3.26,11.68-2.63,15.38,1.69,2.41,2.81,3.74,7.36,1.82,14.71-5.13,19.62-92.12,90.08-135.98,149.33Z"></path></g><g><path opacity=".5" fill="#bfdcff" d="M416.48,464.29s-39.93-64.44-96.12-90.17c-7.47-3.42-15.46,3.77-12.04,10.8,.06,.12,.12,.24,.18,.35,6.05,11.92,71.59,46.45,107.98,79.01Z"></path><path opacity=".5" fill="#bfdcff" d="M429.97,481.93s-76.42-70.12-157.63-82.49c-4.95-.75-9.86,2.15-10.85,6.7-.65,2.96,.23,6.85,4.71,11.69,11.95,12.92,106.38,35.1,163.77,64.09Z"></path></g><path fill="#a9c2ff" d="M1298.13,325V883.96c0,9.78-7.63,17.71-17.04,17.71H409.47c-9.41,0-17.04-7.93-17.04-17.71V325c0-9.79,7.63-17.71,17.04-17.71h871.63c9.41,0,17.04,7.92,17.04,17.71Z"></path><g><path fill="#ff912b" d="M1255.04,293.09v45.33H282.31v-45.33c0-9.35,8.2-16.93,18.3-16.93h936.14c10.1,0,18.3,7.57,18.3,16.93Z"></path><g><path fill="#dceaff" d="M312.06,307.29c0-4.35,3.81-7.88,8.52-7.88s8.52,3.53,8.52,7.88-3.81,7.88-8.52,7.88-8.52-3.53-8.52-7.88Z"></path><path fill="#dceaff" d="M345.63,307.29c0-4.35,3.81-7.88,8.52-7.88s8.52,3.53,8.52,7.88-3.81,7.88-8.52,7.88-8.52-3.53-8.52-7.88Z"></path><path fill="#dceaff" d="M380.05,307.29c0-4.35,3.81-7.88,8.52-7.88s8.52,3.53,8.52,7.88-3.81,7.88-8.52,7.88-8.52-3.53-8.52-7.88Z"></path></g></g><path fill="#dceaff" d="M912.49,227.34l11.64-1.21c.97-.09,1.91,.33,2.44,1.08,.67,.97,1.4,1.92,2.17,2.85,1.43,1.73,2.96,3.32,4.61,4.76,.77,.68,1.03,1.7,.63,2.61l-4.47,10.55c-.49,1.12,.05,2.41,1.24,2.95l10.03,4.6c1.14,.52,2.5,.16,3.19-.82l6.07-8.79c.57-.87,1.7-1.27,2.8-1,4.61,1.13,9.41,1.57,14.2,1.31,1.16-.06,2.23,.63,2.58,1.66l2.06,6.05c.4,1.15,1.67,1.86,2.96,1.63l10.89-2.04c.22-.04,.43-.1,.63-.19,.94-.42,1.53-1.37,1.39-2.36l-.97-8.05-.24-1.96c1.81-.94,3.59-2.03,5.28-3.23,2.28-1.62,4.36-3.41,6.2-5.31,.7-.72,1.81-.99,2.79-.62l9.18,3.34c1.26,.45,2.68-.05,3.27-1.17l3.8-7.1,1.08-2.04c.6-1.11,.2-2.47-.93-3.13l-7.94-4.7c-.93-.53-1.38-1.55-1.12-2.52,.74-2.9,1.15-5.86,1.21-8.82,.03-.26,.02-.49,.02-.75,0-.08,0-.17,.02-.25,.1-.95,.81-1.74,1.8-2.02l10.62-3.11c.12-.03,.24-.08,.35-.13,1.03-.46,1.62-1.54,1.4-2.6l-2.18-10.05c-.26-1.21-1.48-2.04-2.82-1.9l-12.14,1.27c-1.03,.12-2.02-.37-2.51-1.22-1.1-1.85-2.36-3.65-3.8-5.38-.76-.92-1.56-1.8-2.39-2.64-.67-.69-.87-1.67-.5-2.52l4.29-10.14c.48-1.11-.05-2.39-1.22-2.93l-9.93-4.53c-1.2-.55-2.65-.19-3.39,.87l-4.8,6.96c-.64,.93-1.88,1.33-3,.98-4.41-1.42-9.04-2.17-13.7-2.28-1.1,0-2.08-.68-2.42-1.67l-3.02-8.86c-.41-1.19-1.72-1.9-3.04-1.66l-10.83,2c-1.3,.24-2.18,1.37-2.03,2.57l.05,.47,1.13,9.35c.12,1-.43,1.95-1.4,2.41h0c-2.32,1.12-4.57,2.43-6.72,3.96-1.15,.81-2.23,1.67-3.27,2.56-.72,.63-1.76,.82-2.68,.48l-9.32-3.39c-1.27-.47-2.72,.06-3.32,1.18l-4.89,9.15c-.14,.26-.21,.54-.25,.8-.1,.87,.34,1.77,1.17,2.27l6.35,3.74c.77,.47,1.22,1.28,1.19,2.11-.01,.22-.05,.44-.13,.66-1.93,5.25-2.7,10.79-2.29,16.32,.09,.94-.48,1.81-1.36,2.25-.13,.06-.26,.11-.4,.15l-8.6,2.51c-1.25,.36-2,1.54-1.75,2.73l.05,.23,2.12,9.8c.28,1.23,1.51,2.06,2.86,1.92Zm74.49-30.59c.67,1.54,1.2,3.2,1.58,4.98,.71,3.39-.03,8.73-1.68,11.82-.17,.33-.36,.66-.54,.98-11.39,19.57-41.26,15.68-46.17-6.4-.64-2.89-.24-7.09,.88-10.31,.27-.74,.56-1.44,.89-2.03,1.52-2.81,3.41-5.16,5.56-7.08,12.26-10.9,32.76-7.33,39.49,8.04Z"></path><g><path fill="#2a3967" d="M373.2,733.06s1.3-13.08-14.5-13.08c0,0,4.79,1.2,7.26,3.6,0,0-10.08-5.47-21.04,2.94-10.96,8.41-4.15,29.5-7.49,33.5-3.33,4-16.32,4.8-14.73,17.75,1.59,12.95,41.21,29.16,38.66,39.88,0,0,15.53-21.12,4.42-30.75,0,0,5.41,4.72,5.96,10.32,0,0,1.47-10.94-6.06-14.45-6.66-3.1-12.12-14.43-11.54-16.45,.58-2.02,19.04-33.26,19.04-33.26Z"></path><path fill="#ffae73" d="M357.65,795.87s11.8,45.17,23.39,54.2c6.96,5.43,27.67,17.88,27.67,17.88l-8.61,2.89s-28.72-8.97-35.15-15.97c-6.43-6.99-24.03-42.04-24.03-42.04l16.74-16.97Z"></path><path fill="#26529f" d="M246.73,875.23c.1,.17,.21,.35,.32,.53,2.58,4.15,8.51,14.33,15.03,25.46,3.09,5.28,6.32,10.78,9.38,15.96,5.28,8.93,10.09,16.88,12.89,21.09,2.85,4.27,4.95,7.28,5.8,8.48h0c.26,.38,.31,.81,.28,1.25-.3,3.77-.21,7.51,.19,11.2,3.94,36.23,30.34,55.64,30.34,55.64l7.85,1.07s-11.11-38.08-14.38-59.61c-.55-3.65-.79-6.61-.6-8.54,.58-5.61-.5-13.84-2.53-23.3-3.62-16.8-10.27-37.42-16.05-53.93-.37-1.05-11.41-38-11.41-38-9.27,7.49-43.07,10.59-43.07,10.59,0,0-5.73,12.89,5.95,32.11Z"></path><path fill="#1a4379" d="M345.3,1025.1h-32.77s-.79-4.62,.93-8.13c1.64-3.36,3.98-3.47,.3-8.74,2.08,1.98,8.78,2.8,13.51,2.21,.58,.87,3.74,6.71,5.68,8,2.14,1.42,11.69,.92,12.35,6.65Z"></path><path fill="#1e3865" d="M246.73,875.23c.1,.17,.21,.35,.32,.53,2.58,4.15,16.55,28.02,23.07,39.15-7.56-28.78-2.3-57.56-2.3-57.56l-21.1,17.88Z"></path><path fill="#2a3967" d="M368.73,731.22c.21-.8-18.71,7.92-19.67,8.9-8.88,9.11-6.35,21-1.27,21.11,3.26,.07,2.63,5.08,2.63,5.08l36.29-14.2s-4.37-23.58-17.98-20.89Z"></path><path fill="#ff912b" d="M356.53,789.09s5.52,10.21,4.83,18.49c0,0-6.66,9.73-23.93,12.19,0,0,14.85-30.69,19.1-30.68Z"></path><path fill="#26529f" d="M272.28,845.37l.11-5.67c-12.21,1.42-42.1-13.5-42.1-13.5,0,0-12.77,7.86-14.52,30.31-.85,10.96-6.25,57.29-6.85,71.13-.22,5.02-.29,8.59-.31,10.02,0,0,0,.01,0,.01,0,.44-.23,.82-.52,1.17-2.53,2.97-4.72,6.12-6.62,9.38-18.63,32.07-8.89,75.65-8.89,75.65l4.33-1.02s15.75-45.18,26.05-64.72c1.75-3.31,3.33-5.89,4.66-7.38,3.87-4.35,7.95-11.74,11.98-20.63,7.61-16.81,32.68-84.76,32.68-84.76Z"></path><path fill="#1a4379" d="M218.63,1025.1h-32.77s-.79-4.62,.93-8.13c1.64-3.36,4.21-4.89,3.59-8.96,2.08,1.98,5.48,4.21,10.21,3.61,.58,.87,3.75,5.53,5.69,6.82,2.14,1.42,11.69,.92,12.35,6.65Z"></path><path fill="#ff912b" d="M335.22,826.28c-4.4,.69,.72,3.93-5.33,4.54-8.62,.87-17.51,1.47-22.17,3.18-1.7,.63-2.84,1.4-3.19,2.39-2.02,5.62-14.81,15.28-14.81,15.28-57.05-2.4-60.73-25.93-60.73-25.93,37.03-33.27,68.53-51.41,94.57-53.66,6.34-.55,14.88,.19,18.88,1.84,9.11,3.75,14.1,15.17,14.1,15.17,0,0-4.59,34.55-21.31,37.19Z"></path><path fill="#fc7600" d="M329.89,830.82c-8.62,.87-17.51,1.47-22.17,3.18-1.9-26.33,11.52-46.13,11.52-46.13,0,0,8.76,32.98,10.65,42.95Z"></path><path fill="#ffae73" d="M341.95,776.09c1.63,4.72,7.06,18.17,14.58,12.99-.26-1,1.33-3.92,3.19-6.89,2.38-3.79,5.22-7.66,5.22-7.66l-12.26-9.94-.73-.59c-3.21,5.18-6.36,7.68-9.12,9.58-.84,.58-1.19,1.58-.88,2.51Z"></path><path fill="#f99352" d="M364.94,774.54s-2.83,3.86-5.22,7.66c-7.62-4.35-7.63-13.08-7.04-17.6l12.26,9.94Z"></path><path fill="#ffae73" d="M365.28,779.52s-18.51-9.53-11.92-20.1c6.59-10.57,8.64-18.92,20.74-13.29,12.09,5.64,11.86,10.88,10.58,14.91-1.27,4.02-14.42,20.68-19.4,18.48Z"></path><path fill="#2a3967" d="M387.81,754.88c-.85-4.69-3.43-5.14-5.22-4.83-6.83-10.46-18-6.38-18-6.38-5.96,6.92-14.59,8.11-14.59,8.11,0,0,2.15,3.7,11,5.99,2.7,.7,5.77,.28,8.73-.65-6.14,3.17-12.56,4.38-12.56,4.38,11.66,.99,22.76-8.88,23.91-9.93,.54,1.53,1.48,4.73,.92,7.07-.77,3.18-3.82,8.94-1.96,9.68,0,0,9.05-6.4,7.78-13.44Z"></path><g><polygon fill="#25468f" points="554.54 986.42 416.45 924.13 434.11 890.62 572.2 952.91 554.54 986.42"></polygon><path fill="#25468f" d="M373.26,931.14c-12.68-5.72-21.68-16.31-24.71-29.07-1.23-5.18,2.31-10.3,7.91-11.44,5.6-1.14,11.13,2.14,12.36,7.32,1.66,6.99,6.6,12.8,13.54,15.93,12.46,5.62,27.53,.81,33.6-10.71,6.07-11.52,.88-25.47-11.58-31.09-5.66-2.55-12.09-3.05-18.12-1.4-5.5,1.5-11.27-1.4-12.89-6.49-1.62-5.08,1.52-10.42,7.01-11.93,11.01-3.01,22.76-2.1,33.09,2.56,22.74,10.26,32.22,35.72,21.14,56.76-11.09,21.04-38.61,29.81-61.35,19.55Z"></path><path fill="#25468f" d="M568.61,1019.25c-22.74-10.26-32.22-35.72-21.14-56.76,11.09-21.04,38.61-29.81,61.35-19.55,10.33,4.66,18.34,12.67,22.56,22.55,2.11,4.93-.51,10.51-5.84,12.46-5.33,1.95-11.36-.47-13.46-5.4-2.31-5.41-6.7-9.79-12.35-12.35-12.46-5.62-27.53-.81-33.6,10.71-6.07,11.52-.88,25.47,11.58,31.09,6.94,3.13,14.93,3.15,21.9,.06,5.17-2.29,11.36-.28,13.84,4.5,2.48,4.78,.3,10.51-4.87,12.81-12.73,5.65-27.29,5.61-39.97-.11Z"></path><path fill="#1e3865" d="M522.5,956.72l-72.75-32.81c-2.09-.94-2.96-3.29-1.94-5.22l1.85-3.51c1.02-1.93,3.56-2.74,5.64-1.8l72.75,32.81c2.09,.94,2.96,3.29,1.94,5.22l-1.85,3.51c-1.02,1.93-3.56,2.74-5.64,1.8Z"></path></g><path fill="#ffae73" d="M354.68,897.1s.4,3.19,1.86,4.84c1.46,1.65,5.7,5.63,5.77,7.97,0,0-.21,1.04-1.12,.85-.91-.19-4.07-3.08-5.69-2.88,0,0,.86,4.68,1.72,5.99,.86,1.32,2.43,6.28,1.92,7.42-.51,1.14-9.09-5.48-11.69-8.71-2.6-3.23-.04-16.35-.04-16.35l7.27,.88Z"></path><path fill="#ffae73" d="M337.32,783.41s-21.67-1.09-25.52,11.49c-3.85,12.59,7.22,62.82,9.61,68.01,4.34,9.44,25.49,36.38,25.49,36.38l7.78-2.19s-14.1-41.16-17.25-45.23c-4.94-6.39,6.37-62.98-.11-68.46Z"></path><path fill="#ff912b" d="M307.53,811.73c.06,.29,20.5,3.48,33.29-2.53,0,0,10.68-30.97-4.58-29.48-15.27,1.48-24.31,5.93-24.69,12.69-.38,6.76-4.01,19.32-4.01,19.32Z"></path><path fill="#ffae73" d="M398.06,847.82c-1.03,.04-2.91,.36-3.59,.84-1.18,.84-2.51,2.31,.14,3.53,3.97,1.83,11.91,1.02,11.6-.08-.98-3.47-2.41-4.53-8.15-4.28Z"></path></g><g><path fill="#ffae73" d="M512.21,354.85c-1.04,1.11-1.18,2.35-.66,3.67,0,0,0,.01,.01,.02,.96,2.44,4.12,5.18,7.78,7.9,.47,.35,.89,.67,1.25,.96,.1,.08,.19,.15,.28,.23,.07,.06,.14,.12,.22,.18,3.42,2.92,2.13,3.59,8.28,9.51,7.01,6.75,11.84,6.87,13.21,6.25,1.16-.52-1.2-4.1-3.81-8.12-.13-.19-.25-.39-.38-.59-.35-.53-.69-1.08-1.04-1.62-3.06-4.84-2.28-7.11-1.55-14.32,.59-5.85,9.84-32.71,9.84-32.71l-13.43-2.14s-4.05,21.38-8.5,24.68c-2.38,1.76-5.05,1.78-7.34,3.08-.16,.09-.32,.18-.48,.28-1.3,.8-2.63,1.62-3.68,2.73Z"></path><path fill="#1e3865" d="M512.21,354.85c-1.04,1.11-1.18,2.35-.66,3.67,0,0,0,.01,.01,.02,1.17,2.44,4.25,5.16,7.8,7.88,.46,.36,.87,.68,1.24,.99,.1,.08,.19,.15,.28,.23,.07,.06,.14,.12,.22,.18,3.42,2.92,2.13,3.59,8.28,9.51,7.01,6.75,11.84,6.87,13.21,6.25,1.16-.52-1.2-4.1-3.81-8.12-1.36-.46-7.7-2.84-12.49-8.52-4.22-4.98-7.04-11.39-9.91-15.09-.16,.09-.32,.18-.48,.28-1.3,.8-2.63,1.62-3.68,2.73Z"></path><path fill="#ffae73" d="M620.52,347.09c.83,3.84,6.74,3.2,13.34,1.7,6.6-1.49,5.03,.28,14.43-.68,9.4-.96,12.24-4.2,12.53-5.5,.26-1.15-4.39-1.55-9.37-2.08-.63-.07-1.26-.14-1.88-.21-5.62-.65-9.74-4.01-14.85-6.77-4.84-2.61-12.06-13.25-12.06-13.25l-12.89,.94s6.76,9.5,9.38,13.64c1.54,2.43,1.46,5.64,1.27,8.13-.1,1.35-.19,2.73,.1,4.08Z"></path><path fill="#1e3865" d="M633.87,348.79c6.6-1.49,5.03,.28,14.43-.68,9.4-.96,12.24-4.2,12.53-5.5,.26-1.15-4.39-1.55-9.37-2.08l-.05,.09s-5.64,3.7-13.46,3.87c-6.38,.14-13.13-1.55-17.53-1.48-.1,1.35-.19,2.73,.1,4.08,.83,3.84,6.74,3.2,13.34,1.7Z"></path><path fill="#2a3967" d="M571.13,270.84l-12.05,30-15.73,39.17s-4.27,.38-8.36-.71c-3.76-1.01-8.08-3.64-8.08-3.64,0,0,4.37-42.05,12.52-66.19,2.09-6.2,4.43-11.21,7.01-14.03,12.63-13.81,24.69,15.41,24.69,15.41Z"></path><path fill="#26529f" d="M558.89,223.2c-7.89-2.36-30.41,.67-53.02,4.76l-4.73-7.23-48.85-3.53s-16.12,33.07-7.29,54.14c1.3,3.1,3.87,5.08,8.27,5.15h.71s29.07-.02,38.51-.02c24.29,0,51.41-15.45,54.92-16.1,5.74-1.06,8.04,9.56,13.78,20.72,5.74,11.16,53.97,49.41,53.97,49.41,0,0,7.41,.07,10.48-.99,3.29-1.14,4.5-2.63,4.5-2.63,0,0-53.44-98.38-71.24-103.69Z"></path><path fill="#25468f" d="M484.95,83.16c-6.84-1.63-16.21,0-17.77,.14-18.59,1.69-24.83,20.88-22.02,35.76,2.6,13.73-4.93,17.53-13.66,28.38-17.5,21.75-6.06,40.09,7.75,44.82,8.28,2.84,19.78-4.32,19.78-4.32,.21,.08,36.14-21.78,50.87-34.1,24.53-8.88-7.51-66.52-24.95-70.68Z"></path><path fill="#ffae73" d="M487.69,146.07c.49,1.59-7.64,4.52-13.85,3.44-5.84-1.01-12.38-7.33-11.03-7.93,2.23-.98,3.74-3.43,2.52-16.63l1.11,.12,18.68,1.97s.06,5.38,.49,10.43c.36,4.23,1.29,6,2.08,8.6Z"></path><path fill="#f9924f" d="M485.12,127.05s.06,5.38,.49,10.43c-10.31,.51-16.52-7.76-19.17-12.4l18.68,1.97Z"></path><path fill="#ffae73" d="M488.98,131.56s-24.3,2.22-25.56-11.81c-1.26-14.02-5.24-23.18,10.22-25.19,15.46-2.01,18.96,3.11,20.61,7.7,1.65,4.59,1.02,28.36-5.27,29.3Z"></path><path fill="#25468f" d="M486.37,92.35s-3.06,17.13-16.9,21.2c-10.1,2.97-14.67,1.01-14.67,1.01,0,0,4.86-5.96,6.59-14.25,.51-2.44,2.39-4.45,4.94-5.23,7.17-2.18,15.87-8.16,20.04-2.72Z"></path><path fill="#25468f" d="M481.79,96s4.58,.94,8.64,6.41c2.22,2.99,4.79,10.52,4.35,13.86,0,0,4.25-15.86-1.95-21.76-6.58-6.26-11.04,1.49-11.04,1.49Z"></path><path fill="#ff912b" d="M443.93,192.14c.43,1.7,.8,3.27,1.11,4.72,.49,2.33,.84,4.34,1.07,6.12,.74,5.53,.52,8.81,1.02,12.39,.28,2,.79,4.11,1.82,6.75,1.01,2.57,27.41,4.86,42.44,3.94,4.77-.29,8.41-.91,9.7-1.94,5.36-4.31,4.83,5.17,5.56-40.16,.36-22.11-20.28-41.8-20.28-41.8,0,0-1.65,9.44-22.11-1.8-.73-.39-8.79,10.65-16.54,24.24-8.55,15.02-6.2,18.2-3.79,27.55Z"></path><path fill="#25468f" d="M559.09,300.83l-15.73,39.17s-4.27,.38-8.36-.71c-3.76-1.01-8.08-3.64-8.08-3.64,0,0,4.37-42.05,12.52-66.19l19.65,31.37Z"></path><path fill="#ff912b" d="M486.37,142.15s21.05,3.3,23.53,11.69c2.47,8.39,19.55,55.29,19.55,55.29,0,0-13.24,4.18-18.18-.4-4.94-4.57-17.21-42.44-17.21-42.44l-7.69-24.14Z"></path><path fill="#fff" d="M483.37,123.29s1.02,2.31,3.71,2.31,3.42-.37,3.93-.9c.51-.53,1.01-1.54,1.01-1.54,0,0-4.46-.81-8.65,.14Z"></path><path fill="#fc7600" d="M446.11,202.98c.74,5.53,.52,8.81,1.02,12.39,19.12,.06,44.68-13.66,44.68-13.66l-45.7,1.27Z"></path><path fill="#fc7600" d="M491.81,190.11s-29.78-.82-34.8-16.48c-5.51-17.21-11.69,7.08-11.69,7.08l3.29,15.5h32.67l10.53-6.09Z"></path><g><path fill="#6b98f6" d="M543.72,147.61l-1.61-3.69c-1.73-3.95-5.87-6.54-10.48-6.54h-29.69v91.84h122.81v-74.41h-69.5c-5.07,0-9.64-2.85-11.53-7.2Z"></path><g><path fill="#fff" d="M520.47,193.23v-6.62l25.1-10.17v6.76l-17.53,6.67,17.53,6.67v6.86l-25.1-10.17Z"></path><path fill="#fff" d="M571.65,168.52h6.69l-22.97,44.42h-6.69l22.97-44.42Z"></path><path fill="#fff" d="M606.23,186.61v6.62l-25.1,10.17v-6.76l17.53-6.67-17.53-6.67v-6.86l25.1,10.17Z"></path></g></g><path fill="#ffae73" d="M491.8,193.74l2.15-3.13s1.71-.51,4.1-2.07c2.84-1.85,2.47-4.62,3.89-4.32l.02,6.08-.15,.02c6.1,1.51,13.24-.13,13.38,1.27,.39,3.87-2.84,5.61-5.55,6.82-2.07,.93-4.43,2.32-8.17,1.24-2.74-.79-7.05-1.59-7.05-1.59l-2.62-4.33Z"></path><path fill="#ff912b" d="M464.26,140.36s-19.33,1.17-24.16,8.15c-4.83,6.98-10.83,42.39-8.31,54.56,2.51,12.16,64.42-2.33,64.42-2.33l-1.97-10.55s-35.73,.19-37.76-4.11c-2.71-5.72,7.8-45.71,7.8-45.71Z"></path><path fill="#ffae73" d="M557.58,154.77c-.17,.46,2.91,5.15,7.3,4.34,2.74-.51,6.3-5.96,3.17-7.16-5.22-2.01-10.02,1.59-10.47,2.83Z"></path></g><g><polygon fill="#214d9a" points="746.6 400.78 745.95 400.46 817.72 276 818.36 276.32 746.6 400.78"></polygon><polygon fill="#214d9a" points="1080.66 356.96 999.95 276.39 1000.49 275.93 1081.2 356.5 1080.66 356.96"></polygon><g><path fill="#e8f2fa" d="M1131.09,380.24c1.2,8.07-1.19,15.85-6.02,21.88-4.82,6.03-12.07,10.32-20.59,11.4l-360.85,45.87c-18.42,2.34-35.45-8.95-37.84-25.09-1.2-8.07,1.48-15.88,6.76-21.97,5.28-6.09,13.16-10.45,22.37-11.62l360.85-45.87c17.04-2.17,32.93,9.26,35.33,25.4Z"></path><path fill="#ff912b" d="M1131.09,380.24c1.2,8.07-1.19,15.85-6.02,21.88-4.82,6.03-12.07,10.32-20.59,11.4l-65.3,8.3-8.71-58.68,65.3-8.3c17.04-2.17,32.93,9.26,35.33,25.4Z"></path><g><path fill="#fff" d="M1091.35,396.16c-.8,.1-1.62,.15-2.44,.14-4.36-.05-8.43-1.66-11.48-4.54-6.29-5.95-6.17-15.53,.27-21.34h0c6.43-5.82,16.78-5.71,23.07,.25,6.29,5.95,6.17,15.53-.27,21.35-2.53,2.28-5.71,3.72-9.15,4.16Zm-11.78-23.97c-5.37,4.86-5.47,12.86-.22,17.83,2.54,2.41,5.95,3.76,9.59,3.8,3.64,.04,7.08-1.24,9.68-3.59,5.37-4.86,5.48-12.86,.22-17.83-5.25-4.97-13.9-5.07-19.27-.21h0Z"></path><polygon fill="#fff" points="1063.4 406.18 1061.52 404.4 1077.45 390 1079.32 391.78 1063.4 406.18"></polygon><path fill="#fff" d="M1056.93,410.29h0c-.93-.88-.91-2.28,.04-3.14l9.38-8.48c.95-.86,2.47-.84,3.39,.04h0c.93,.88,.91,2.28-.04,3.14l-9.38,8.48c-.95,.86-2.47,.84-3.39-.04Z"></path></g></g></g><g><rect fill="#ff912b" ry="3.18" rx="3.18" height="6.36" width="81.07" y="692.73" x="446.89"></rect><g><path fill="#6b98f6" d="M486.44,720.98h-37.2c-1.3,0-2.35-.97-2.35-2.17h0c0-1.2,1.05-2.17,2.35-2.17h37.2c1.3,0,2.35,.97,2.35,2.17h0c0,1.2-1.05,2.17-2.35,2.17Z"></path><g><rect fill="#6b98f6" ry="2.17" rx="2.17" height="4.34" width="70.21" y="707.53" x="446.89"></rect><rect fill="#6b98f6" ry="2.17" rx="2.17" height="4.34" width="65.56" y="707.53" x="523.5"></rect><path fill="#6b98f6" d="M532.83,720.98h-37.2c-1.3,0-2.35-.97-2.35-2.17h0c0-1.2,1.05-2.17,2.35-2.17h37.2c1.3,0,2.35,.97,2.35,2.17h0c0,1.2-1.05,2.17-2.35,2.17Z"></path></g></g><rect fill="#ff912b" ry="3.18" rx="3.18" height="6.36" width="81.07" y="692.73" x="538.69"></rect></g><g><path fill="#ff912b" d="M450.07,740.65h74.71c1.76,0,3.18,1.43,3.18,3.18h0c0,1.76-1.43,3.18-3.18,3.18h-74.71c-1.76,0-3.18-1.43-3.18-3.18h0c0-1.76,1.43-3.18,3.18-3.18Z"></path><g><path fill="#6b98f6" d="M486.44,768.9h-37.2c-1.3,0-2.35-.97-2.35-2.17h0c0-1.2,1.05-2.17,2.35-2.17h37.2c1.3,0,2.35,.97,2.35,2.17h0c0,1.2-1.05,2.17-2.35,2.17Z"></path><g><rect fill="#6b98f6" ry="2.17" rx="2.17" height="4.34" width="70.21" y="755.45" x="446.89"></rect><path fill="#6b98f6" d="M525.68,755.45h61.22c1.2,0,2.17,.97,2.17,2.17h0c0,1.2-.97,2.17-2.17,2.17h-61.22c-1.2,0-2.17-.97-2.17-2.17h0c0-1.2,.97-2.17,2.17-2.17Z"></path><path fill="#6b98f6" d="M532.83,768.9h-37.2c-1.3,0-2.35-.97-2.35-2.17h0c0-1.2,1.05-2.17,2.35-2.17h37.2c1.3,0,2.35,.97,2.35,2.17h0c0,1.2-1.05,2.17-2.35,2.17Z"></path></g></g><rect fill="#ff912b" ry="3.18" rx="3.18" height="6.36" width="81.07" y="740.65" x="538.69"></rect></g><g><polygon fill="#1e3865" points="916.98 455.78 873.93 465.05 852.64 500.9 836.38 419.21 916.98 455.78"></polygon><polygon fill="#1e3865" points="899.08 490.76 892.81 495.16 865.3 461.58 871.58 457.18 899.08 490.76"></polygon></g><g><path fill="#d1e0ff" d="M786.72,512.33h98.27c6.38,0,11.56,5.18,11.56,11.56v89.19c0,6.38-5.18,11.56-11.56,11.56h-98.27c-6.38,0-11.56-5.18-11.56-11.56v-89.19c0-6.38,5.18-11.56,11.56-11.56Z"></path><g><path fill="#6b98f6" d="M790.67,601.15l23.59-39.34c2.75-4.58,9.7-4.99,13.04-.76l13.61,17.17c2.89,3.65,8.68,3.94,11.98,.6h0c3.43-3.47,9.48-3,12.24,.94l14.68,20.97c3.34,4.78-.36,11.08-6.51,11.08h-75.84c-5.91,0-9.65-5.88-6.78-10.66Z"></path><path fill="#6b98f6" d="M837.22,543.41c0-4.74,4.15-8.59,9.28-8.59s9.28,3.84,9.28,8.59-4.15,8.58-9.28,8.58-9.28-3.84-9.28-8.58Z"></path></g></g><g><path fill="#d1e0ff" d="M1044.09,627.67l-104.9,13.24c-4.25,.54-8.16-2.21-8.74-6.14l-14.31-97.06c-.58-3.93,2.39-7.55,6.64-8.08l104.9-13.24c4.25-.54,8.16,2.21,8.74,6.14l14.31,97.06c.58,3.93-2.39,7.55-6.64,8.08Z"></path><g><path fill="#6b98f6" d="M943.44,616.66l17.62-41.93c2.05-4.88,8.88-6.15,12.81-2.39l15.99,15.31c3.4,3.26,9.17,2.82,11.96-.9h0c2.89-3.86,8.95-4.16,12.26-.6l17.61,18.95c4.01,4.31,1.26,11.02-4.83,11.79l-75.14,9.48c-5.86,.74-10.42-4.61-8.28-9.71Z"></path><path fill="#6b98f6" d="M981.13,553.63c-.69-4.7,2.86-9.03,7.94-9.67,5.08-.64,9.76,2.65,10.45,7.35,.69,4.7-2.86,9.03-7.94,9.67-5.08,.64-9.76-2.65-10.45-7.35Z"></path></g></g><g><rect fill="#ff912b" height="48.53" width="61.18" y="974.64" x="674.47"></rect><rect fill="#a9c2ff" height="3.75" width="65.72" y="972.56" x="672"></rect><rect fill="#fddbba" height="15.42" width="61.18" y="987.77" x="674.47"></rect></g><path fill="#ff912b" d="M810.08,1023.2h-57.77c-2.11,0-3.83-1.59-3.83-3.54v-5.93c0-2.11,1.98-3.75,4.25-3.52l57.77,5.93c1.94,.2,3.41,1.72,3.41,3.52h0c0,1.96-1.71,3.54-3.83,3.54Z"></path><path fill="#2d3554" d="M1618.04,1028l-1608.27-.51c-1.08,0-1.96-.82-1.96-1.81v-.93c0-1,.88-1.81,1.96-1.81l1608.27,.51c1.08,0,1.96,.82,1.96,1.81v.93c0,1-.88,1.81-1.96,1.81Z"></path><path fill="#6b98f6" d="M709.17,629.05h-6.66c-.6,0-1.09-.45-1.09-1.01s.49-1.01,1.09-1.01h6.61c.6,0,1.12,.45,1.12,1.01s-.47,1.01-1.07,1.01Zm-13.27,0h-6.61c-.6,0-1.09-.45-1.09-1.01s.49-1.01,1.09-1.01h6.61c.6,0,1.09,.45,1.09,1.01s-.49,1.01-1.09,1.01Zm-13.22,0h-6.61c-.6,0-1.09-.45-1.09-1.01s.49-1.01,1.09-1.01h6.61c.6,0,1.09,.45,1.09,1.01s-.49,1.01-1.09,1.01Zm-13.22,0h-6.61c-.6,0-1.09-.45-1.09-1.01s.49-1.01,1.09-1.01h6.61c.6,0,1.09,.45,1.09,1.01s-.49,1.01-1.09,1.01Zm-13.22,0h-6.61c-.6,0-1.09-.45-1.09-1.01s.49-1.01,1.09-1.01h6.61c.6,0,1.09,.45,1.09,1.01s-.49,1.01-1.09,1.01Zm-13.22,0h-6.61c-.6,0-1.09-.45-1.09-1.01s.49-1.01,1.09-1.01h6.61c.6,0,1.09,.45,1.09,1.01s-.49,1.01-1.09,1.01Zm-13.22,0h-6.61c-.6,0-1.09-.45-1.09-1.01s.49-1.01,1.09-1.01h6.61c.6,0,1.09,.45,1.09,1.01s-.49,1.01-1.09,1.01Zm-13.22,0h-6.61c-.6,0-1.09-.45-1.09-1.01s.49-1.01,1.09-1.01h6.61c.6,0,1.09,.45,1.09,1.01s-.49,1.01-1.09,1.01Zm-13.22,0h-6.61c-.6,0-1.09-.45-1.09-1.01s.49-1.01,1.09-1.01h6.61c.6,0,1.09,.45,1.09,1.01s-.49,1.01-1.09,1.01Zm-13.22,0h-6.61c-.6,0-1.09-.45-1.09-1.01s.49-1.01,1.09-1.01h6.61c.6,0,1.09,.45,1.09,1.01s-.49,1.01-1.09,1.01Zm-13.22,0h-6.61c-.6,0-1.09-.45-1.09-1.01s.49-1.01,1.09-1.01h6.61c.6,0,1.09,.45,1.09,1.01s-.49,1.01-1.09,1.01Zm-13.22,0h-6.61c-.6,0-1.09-.45-1.09-1.01s.49-1.01,1.09-1.01h6.61c.6,0,1.09,.45,1.09,1.01s-.49,1.01-1.09,1.01Zm-13.22,0h-6.61c-.6,0-1.09-.45-1.09-1.01s.49-1.01,1.09-1.01h6.61c.6,0,1.09,.45,1.09,1.01s-.49,1.01-1.09,1.01Zm-13.22,0h-6.61c-.6,0-1.09-.45-1.09-1.01s.49-1.01,1.09-1.01h6.61c.6,0,1.09,.45,1.09,1.01s-.49,1.01-1.09,1.01Zm-13.22,0h-6.61c-.6,0-1.09-.45-1.09-1.01s.49-1.01,1.09-1.01h6.61c.6,0,1.09,.45,1.09,1.01s-.49,1.01-1.09,1.01Zm-13.22,0h-6.61c-.6,0-1.09-.45-1.09-1.01s.49-1.01,1.09-1.01h6.61c.6,0,1.09,.45,1.09,1.01s-.49,1.01-1.09,1.01Zm-13.22,0h-6.61c-.6,0-1.09-.45-1.09-1.01s.49-1.01,1.09-1.01h6.61c.6,0,1.09,.45,1.09,1.01s-.49,1.01-1.09,1.01Zm-13.22,0h-5.89c-.26,0-.53,0-.79-.02-.6-.04-1.06-.52-1.02-1.07,.04-.56,.56-.99,1.16-.95,.21,.01,.43,.02,.65,.02h5.89c.6,0,1.09,.45,1.09,1.01s-.49,1.01-1.09,1.01Zm231.07-1.78c-.35,0-.69-.16-.91-.44-.34-.46-.21-1.09,.29-1.41,1.67-1.05,2.94-2.51,3.69-4.23,.23-.52,.86-.77,1.42-.56,.56,.21,.83,.8,.61,1.32-.91,2.09-2.47,3.88-4.49,5.15-.19,.12-.4,.18-.61,.18Zm-243.78-.37c-.23,0-.47-.07-.67-.21-1.94-1.38-3.38-3.25-4.15-5.39-.19-.53,.12-1.1,.69-1.28,.57-.18,1.19,.11,1.38,.64,.64,1.76,1.81,3.29,3.41,4.43,.48,.34,.57,.98,.2,1.42-.22,.26-.54,.39-.87,.39Zm248.68-10.35c-.6,0-1.09-.45-1.09-1.01v-6.12c0-.56,.49-1.01,1.09-1.01s1.09,.45,1.09,1.01v6.12c0,.56-.49,1.01-1.09,1.01Zm-253.03-.62c-.6,0-1.09-.45-1.09-1.01v-6.12c0-.56,.49-1.01,1.09-1.01s1.09,.45,1.09,1.01v6.12c0,.56-.49,1.01-1.09,1.01Zm253.03-11.61c-.6,0-1.09-.45-1.09-1.01v-6.12c0-.56,.49-1.01,1.09-1.01s1.09,.45,1.09,1.01v6.12c0,.56-.49,1.01-1.09,1.01Zm-253.03-.62c-.6,0-1.09-.45-1.09-1.01v-6.12c0-.56,.49-1.01,1.09-1.01s1.09,.45,1.09,1.01v6.12c0,.56-.49,1.01-1.09,1.01Zm253.03-11.61c-.6,0-1.09-.45-1.09-1.01v-6.12c0-.56,.49-1.01,1.09-1.01s1.09,.45,1.09,1.01v6.12c0,.56-.49,1.01-1.09,1.01Zm-253.03-.62c-.6,0-1.09-.45-1.09-1.01v-6.12c0-.56,.49-1.01,1.09-1.01s1.09,.45,1.09,1.01v6.12c0,.56-.49,1.01-1.09,1.01Zm253.03-11.61c-.6,0-1.09-.45-1.09-1.01v-6.12c0-.56,.49-1.01,1.09-1.01s1.09,.45,1.09,1.01v6.12c0,.56-.49,1.01-1.09,1.01Zm-253.03-.62c-.6,0-1.09-.45-1.09-1.01v-6.12c0-.56,.49-1.01,1.09-1.01s1.09,.45,1.09,1.01v6.12c0,.56-.49,1.01-1.09,1.01Zm253.03-11.61c-.6,0-1.09-.45-1.09-1.01v-6.12c0-.56,.49-1.01,1.09-1.01s1.09,.45,1.09,1.01v6.12c0,.56-.49,1.01-1.09,1.01Zm-253.03-.62c-.6,0-1.09-.45-1.09-1.01v-6.12c0-.56,.49-1.01,1.09-1.01s1.09,.45,1.09,1.01v6.12c0,.56-.49,1.01-1.09,1.01Zm253.03-11.61c-.6,0-1.09-.45-1.09-1.01v-6.12c0-.56,.49-1.01,1.09-1.01s1.09,.45,1.09,1.01v6.12c0,.56-.49,1.01-1.09,1.01Zm-253.03-.62c-.6,0-1.09-.45-1.09-1.01v-6.12c0-.56,.49-1.01,1.09-1.01s1.09,.45,1.09,1.01v6.12c0,.56-.49,1.01-1.09,1.01Zm253.03-11.61c-.6,0-1.09-.45-1.09-1.01v-6.12c0-.56,.49-1.01,1.09-1.01s1.09,.45,1.09,1.01v6.12c0,.56-.49,1.01-1.09,1.01Zm-253.03-.62c-.6,0-1.09-.45-1.09-1.01v-6.12c0-.56,.49-1.01,1.09-1.01s1.09,.45,1.09,1.01v6.12c0,.56-.49,1.01-1.09,1.01Zm253.03-11.61c-.6,0-1.09-.45-1.09-1.01v-6.12c0-.56,.49-1.01,1.09-1.01s1.09,.45,1.09,1.01v6.12c0,.56-.49,1.01-1.09,1.01Zm-253.03-.62c-.6,0-1.09-.45-1.09-1.01v-6.12c0-.56,.49-1.01,1.09-1.01s1.09,.45,1.09,1.01v6.12c0,.56-.49,1.01-1.09,1.01Zm253.03-11.61c-.6,0-1.09-.45-1.09-1.01v-6.12c0-.56,.49-1.01,1.09-1.01s1.09,.45,1.09,1.01v6.12c0,.56-.49,1.01-1.09,1.01Zm-253.03-.62c-.6,0-1.09-.45-1.09-1.01v-6.12c0-.56,.49-1.01,1.09-1.01s1.09,.45,1.09,1.01v6.12c0,.56-.49,1.01-1.09,1.01Zm253.03-11.61c-.6,0-1.09-.45-1.09-1.01v-2.76c0-1.02-.18-2.02-.52-2.97-.19-.53,.12-1.1,.69-1.28,.57-.18,1.19,.11,1.39,.64,.42,1.16,.64,2.38,.64,3.62v2.76c0,.56-.49,1.01-1.09,1.01Zm-253.03-.62c-.6,0-1.09-.45-1.09-1.01v-2.14c0-1.47,.3-2.91,.89-4.26,.23-.52,.87-.77,1.43-.56,.56,.21,.83,.8,.6,1.32-.49,1.11-.73,2.29-.73,3.5v2.14c0,.56-.49,1.01-1.09,1.01Zm248.66-10.34c-.23,0-.47-.07-.67-.21-1.59-1.13-3.5-1.79-5.5-1.9-.6-.03-1.06-.51-1.03-1.07,.04-.56,.56-.99,1.16-.95,2.44,.14,4.76,.94,6.7,2.32,.48,.34,.57,.98,.2,1.42-.22,.26-.54,.4-.87,.4Zm-243.74-.36c-.35,0-.7-.16-.91-.45-.34-.46-.21-1.09,.29-1.41,2.02-1.27,4.39-1.94,6.84-1.94h0c.6,0,1.09,.45,1.09,1.01,0,.56-.49,1.01-1.09,1.01-2.01,0-3.95,.55-5.62,1.59-.19,.12-.4,.17-.61,.17Zm231.03-1.77h-6.61c-.6,0-1.09-.45-1.09-1.01s.49-1.01,1.09-1.01h6.61c.6,0,1.09,.45,1.09,1.01s-.49,1.01-1.09,1.01Zm-13.22,0h-6.61c-.6,0-1.09-.45-1.09-1.01s.49-1.01,1.09-1.01h6.61c.6,0,1.09,.45,1.09,1.01s-.49,1.01-1.09,1.01Zm-13.22,0h-6.61c-.6,0-1.09-.45-1.09-1.01s.49-1.01,1.09-1.01h6.61c.6,0,1.09,.45,1.09,1.01s-.49,1.01-1.09,1.01Zm-13.22,0h-6.61c-.6,0-1.09-.45-1.09-1.01s.49-1.01,1.09-1.01h6.61c.6,0,1.09,.45,1.09,1.01s-.49,1.01-1.09,1.01Zm-13.22,0h-6.61c-.6,0-1.09-.45-1.09-1.01s.49-1.01,1.09-1.01h6.61c.6,0,1.09,.45,1.09,1.01s-.49,1.01-1.09,1.01Zm-13.22,0h-6.61c-.6,0-1.09-.45-1.09-1.01s.49-1.01,1.09-1.01h6.61c.6,0,1.09,.45,1.09,1.01s-.49,1.01-1.09,1.01Zm-13.22,0h-6.61c-.6,0-1.09-.45-1.09-1.01s.49-1.01,1.09-1.01h6.61c.6,0,1.09,.45,1.09,1.01s-.49,1.01-1.09,1.01Zm-13.22,0h-6.61c-.6,0-1.09-.45-1.09-1.01s.49-1.01,1.09-1.01h6.61c.6,0,1.09,.45,1.09,1.01s-.49,1.01-1.09,1.01Zm-13.22,0h-6.61c-.6,0-1.09-.45-1.09-1.01s.49-1.01,1.09-1.01h6.61c.6,0,1.09,.45,1.09,1.01s-.49,1.01-1.09,1.01Zm-13.22,0h-6.61c-.6,0-1.09-.45-1.09-1.01s.49-1.01,1.09-1.01h6.61c.6,0,1.09,.45,1.09,1.01s-.49,1.01-1.09,1.01Zm-13.22,0h-6.61c-.6,0-1.09-.45-1.09-1.01s.49-1.01,1.09-1.01h6.61c.6,0,1.09,.45,1.09,1.01s-.49,1.01-1.09,1.01Zm-13.22,0h-6.61c-.6,0-1.09-.45-1.09-1.01s.49-1.01,1.09-1.01h6.61c.6,0,1.09,.45,1.09,1.01s-.49,1.01-1.09,1.01Zm-13.22,0h-6.61c-.6,0-1.09-.45-1.09-1.01s.49-1.01,1.09-1.01h6.61c.6,0,1.09,.45,1.09,1.01s-.49,1.01-1.09,1.01Zm-13.22,0h-6.61c-.6,0-1.09-.45-1.09-1.01s.49-1.01,1.09-1.01h6.61c.6,0,1.09,.45,1.09,1.01s-.49,1.01-1.09,1.01Zm-13.22,0h-6.61c-.6,0-1.09-.45-1.09-1.01s.49-1.01,1.09-1.01h6.61c.6,0,1.09,.45,1.09,1.01s-.49,1.01-1.09,1.01Zm-13.22,0h-6.61c-.6,0-1.09-.45-1.09-1.01s.49-1.01,1.09-1.01h6.61c.6,0,1.09,.45,1.09,1.01s-.49,1.01-1.09,1.01Zm-13.22,0h-6.61c-.6,0-1.09-.45-1.09-1.01s.49-1.01,1.09-1.01h6.61c.6,0,1.09,.45,1.09,1.01s-.49,1.01-1.09,1.01Z"></path><path fill="#6b98f6" d="M1085.02,798.83h-5.9c-.54,0-.97-.4-.97-.9s.43-.9,.97-.9h5.86c.54,0,.99,.4,.99,.9s-.41,.9-.95,.9Zm-11.76,0h-5.86c-.54,0-.97-.4-.97-.9s.43-.9,.97-.9h5.86c.54,0,.97,.4,.97,.9s-.43,.9-.97,.9Zm-11.71,0h-5.86c-.54,0-.97-.4-.97-.9s.43-.9,.97-.9h5.86c.54,0,.97,.4,.97,.9s-.43,.9-.97,.9Zm-11.71,0h-5.86c-.54,0-.97-.4-.97-.9s.43-.9,.97-.9h5.86c.54,0,.97,.4,.97,.9s-.43,.9-.97,.9Zm-11.71,0h-5.86c-.54,0-.97-.4-.97-.9s.43-.9,.97-.9h5.86c.54,0,.97,.4,.97,.9s-.43,.9-.97,.9Zm-11.71,0h-5.86c-.54,0-.97-.4-.97-.9s.43-.9,.97-.9h5.86c.54,0,.97,.4,.97,.9s-.43,.9-.97,.9Zm-11.71,0h-5.86c-.54,0-.97-.4-.97-.9s.43-.9,.97-.9h5.86c.54,0,.97,.4,.97,.9s-.43,.9-.97,.9Zm-11.71,0h-5.86c-.54,0-.97-.4-.97-.9s.43-.9,.97-.9h5.86c.54,0,.97,.4,.97,.9s-.43,.9-.97,.9Zm-11.71,0h-5.86c-.54,0-.97-.4-.97-.9s.43-.9,.97-.9h5.86c.54,0,.97,.4,.97,.9s-.43,.9-.97,.9Zm-11.71,0h-5.66c-.08,0-.17,0-.25,0-.53-.02-.95-.45-.92-.94,.03-.49,.46-.87,1.02-.85,.05,0,.1,0,.15,0h5.66c.54,0,.97,.4,.97,.9s-.43,.9-.97,.9Zm109.26-3.43h-.03c-.53-.02-.96-.43-.94-.93v-5.39c0-.5,.44-.9,.97-.9s.97,.4,.97,.9v5.45c-.02,.49-.45,.87-.97,.87Zm-118.75-.14c-.54,0-.97-.4-.97-.9v-5.42c0-.5,.43-.9,.97-.9s.97,.4,.97,.9v5.42c0,.5-.43,.9-.97,.9Zm118.75-10.69c-.54,0-.97-.4-.97-.9v-5.42c0-.5,.43-.9,.97-.9s.97,.4,.97,.9v5.42c0,.5-.43,.9-.97,.9Zm-118.75-.14c-.54,0-.97-.4-.97-.9v-5.42c0-.5,.43-.9,.97-.9s.97,.4,.97,.9v5.42c0,.5-.43,.9-.97,.9Zm118.75-10.69c-.54,0-.97-.4-.97-.9v-5.42c0-.5,.43-.9,.97-.9s.97,.4,.97,.9v5.42c0,.5-.43,.9-.97,.9Zm-118.75-.14c-.54,0-.97-.4-.97-.9v-5.28c0-.06,0-.11,0-.17,.02-.49,.45-.89,1.01-.86,.53,.02,.95,.44,.93,.93v5.38c0,.5-.44,.9-.97,.9Zm115.1-8.83h-5.86c-.54,0-.97-.41-.97-.9s.43-.9,.97-.9h5.68c.07,0,.15,0,.22,0,.53,.02,.95,.44,.93,.94-.02,.48-.45,.86-.97,.86Zm-11.72,0h-5.86c-.54,0-.97-.4-.97-.9s.43-.9,.97-.9h5.86c.54,0,.97,.4,.97,.9s-.43,.9-.97,.9Zm-11.71,0h-5.86c-.54,0-.97-.4-.97-.9s.43-.9,.97-.9h5.86c.54,0,.97,.4,.97,.9s-.43,.9-.97,.9Zm-11.71,0h-5.86c-.54,0-.97-.4-.97-.9s.43-.9,.97-.9h5.86c.54,0,.97,.4,.97,.9s-.43,.9-.97,.9Zm-11.71,0h-5.86c-.54,0-.97-.4-.97-.9s.43-.9,.97-.9h5.86c.54,0,.97,.4,.97,.9s-.43,.9-.97,.9Zm-11.71,0h-5.86c-.54,0-.97-.4-.97-.9s.43-.9,.97-.9h5.86c.54,0,.97,.4,.97,.9s-.43,.9-.97,.9Zm-11.71,0h-5.86c-.54,0-.97-.4-.97-.9s.43-.9,.97-.9h5.86c.54,0,.97,.4,.97,.9s-.43,.9-.97,.9Zm-11.71,0h-5.86c-.54,0-.97-.4-.97-.9s.43-.9,.97-.9h5.86c.54,0,.97,.4,.97,.9s-.43,.9-.97,.9Zm-11.71,0h-5.86c-.54,0-.97-.4-.97-.9s.43-.9,.97-.9h5.86c.54,0,.97,.4,.97,.9s-.43,.9-.97,.9Zm-11.71,0h-5.83c-.54,0-.98-.4-.98-.9s.42-.9,.96-.9h5.86c.54,0,.97,.4,.97,.9s-.43,.9-.97,.9Z"></path><path fill="#6b98f6" d="M666.65,475.42h-6.52c-.6,0-1.09-.45-1.09-1.01s.49-1.01,1.09-1.01h6.48c.6,0,1.11,.45,1.11,1.01s-.47,1.01-1.07,1.01Zm-13,0h-6.48c-.6,0-1.09-.45-1.09-1.01s.49-1.01,1.09-1.01h6.48c.6,0,1.09,.45,1.09,1.01s-.49,1.01-1.09,1.01Zm-12.96,0h-6.48c-.6,0-1.09-.45-1.09-1.01s.49-1.01,1.09-1.01h6.48c.6,0,1.09,.45,1.09,1.01s-.49,1.01-1.09,1.01Zm-12.96,0h-6.48c-.6,0-1.09-.45-1.09-1.01s.49-1.01,1.09-1.01h6.48c.6,0,1.09,.45,1.09,1.01s-.49,1.01-1.09,1.01Zm-12.96,0h-6.48c-.6,0-1.09-.45-1.09-1.01s.49-1.01,1.09-1.01h6.48c.6,0,1.09,.45,1.09,1.01s-.49,1.01-1.09,1.01Zm-12.96,0h-6.48c-.6,0-1.09-.45-1.09-1.01s.49-1.01,1.09-1.01h6.48c.6,0,1.09,.45,1.09,1.01s-.49,1.01-1.09,1.01Zm-12.96,0h-6.48c-.6,0-1.09-.45-1.09-1.01s.49-1.01,1.09-1.01h6.48c.6,0,1.09,.45,1.09,1.01s-.49,1.01-1.09,1.01Zm-12.84-.65c-.18,0-.37-.04-.54-.13-2.03-1.06-3.29-3.06-3.29-5.22v-.74c0-.56,.49-1.01,1.09-1.01s1.09,.45,1.09,1.01v.74c0,1.43,.83,2.75,2.18,3.46,.53,.28,.71,.89,.41,1.38-.2,.33-.57,.51-.95,.51Zm95.66-2.58c-.13,0-.26-.02-.39-.06-.57-.2-.85-.78-.64-1.3,.18-.45,.27-.92,.27-1.4v-4.2c0-.56,.49-1.01,1.09-1.01s1.09,.45,1.09,1.01v4.2c0,.73-.14,1.44-.41,2.11-.17,.41-.58,.66-1.02,.66Zm-98.39-8.49c-.6,0-1.09-.45-1.09-1.01v-6c0-.56,.49-1.01,1.09-1.01s1.09,.45,1.09,1.01v6c0,.56-.49,1.01-1.09,1.01Zm98.73-3.47c-.6,0-1.09-.45-1.09-1.01v-6c0-.56,.49-1.01,1.09-1.01s1.09,.45,1.09,1.01v6c0,.56-.49,1.01-1.09,1.01Zm-98.73-8.53c-.6,0-1.09-.45-1.09-1.01v-6c0-.56,.49-1.01,1.09-1.01s1.09,.45,1.09,1.01v6c0,.56-.49,1.01-1.09,1.01Zm98.73-3.47c-.6,0-1.09-.45-1.09-1.01v-6c0-.56,.49-1.01,1.09-1.01s1.09,.45,1.09,1.01v6c0,.56-.49,1.01-1.09,1.01Zm-98.73-8.53c-.6,0-1.09-.45-1.09-1.01v-6c0-.56,.49-1.01,1.09-1.01s1.09,.45,1.09,1.01v6c0,.56-.49,1.01-1.09,1.01Zm98.73-3.47c-.6,0-1.09-.45-1.09-1.01v-6c0-.56,.49-1.01,1.09-1.01s1.09,.45,1.09,1.01v6c0,.56-.49,1.01-1.09,1.01Zm-98.73-8.53c-.6,0-1.09-.45-1.09-1.01v-6c0-.56,.49-1.01,1.09-1.01s1.09,.45,1.09,1.01v6c0,.56-.49,1.01-1.09,1.01Zm98.73-3.47c-.6,0-1.09-.45-1.09-1.01v-6c0-.56,.49-1.01,1.09-1.01s1.09,.45,1.09,1.01v6c0,.56-.49,1.01-1.09,1.01Zm-98.73-8.53c-.6,0-1.09-.45-1.09-1.01v-6c0-.56,.49-1.01,1.09-1.01s1.09,.45,1.09,1.01v6c0,.56-.49,1.01-1.09,1.01Zm98.73-3.47c-.6,0-1.09-.45-1.09-1.01v-6c0-.56,.49-1.01,1.09-1.01s1.09,.45,1.09,1.01v6c0,.56-.49,1.01-1.09,1.01Zm-98.73-8.53c-.6,0-1.09-.45-1.09-1.01v-4.18c0-.73,.14-1.45,.42-2.13,.21-.52,.85-.78,1.41-.59,.56,.2,.85,.78,.63,1.31-.19,.45-.28,.93-.28,1.41v4.18c0,.56-.49,1.01-1.09,1.01Zm98.73-3.47c-.6,0-1.09-.45-1.09-1.01v-.72c0-1.43-.84-2.76-2.19-3.46-.53-.27-.71-.89-.42-1.38,.3-.49,.96-.66,1.49-.39,2.04,1.06,3.31,3.06,3.31,5.23v.72c0,.56-.49,1.01-1.09,1.01Zm-9.11-5.7h-6.48c-.6,0-1.09-.45-1.09-1.01s.49-1.01,1.09-1.01h6.48c.6,0,1.09,.45,1.09,1.01s-.49,1.01-1.09,1.01Zm-12.96,0h-6.48c-.6,0-1.09-.45-1.09-1.01s.49-1.01,1.09-1.01h6.48c.6,0,1.09,.45,1.09,1.01s-.49,1.01-1.09,1.01Zm-12.96,0h-6.48c-.6,0-1.09-.45-1.09-1.01s.49-1.01,1.09-1.01h6.48c.6,0,1.09,.45,1.09,1.01s-.49,1.01-1.09,1.01Zm-12.96,0h-6.48c-.6,0-1.09-.45-1.09-1.01s.49-1.01,1.09-1.01h6.48c.6,0,1.09,.45,1.09,1.01s-.49,1.01-1.09,1.01Zm-12.96,0h-6.48c-.6,0-1.09-.45-1.09-1.01s.49-1.01,1.09-1.01h6.48c.6,0,1.09,.45,1.09,1.01s-.49,1.01-1.09,1.01Zm-12.96,0h-6.48c-.6,0-1.09-.45-1.09-1.01s.49-1.01,1.09-1.01h6.48c.6,0,1.09,.45,1.09,1.01s-.49,1.01-1.09,1.01Zm-12.96,0h-6.46c-.6,0-1.1-.45-1.1-1.01s.48-1.01,1.08-1.01h6.48c.6,0,1.09,.45,1.09,1.01s-.49,1.01-1.09,1.01Z"></path><path fill="#6b98f6" d="M1085.02,848.85h-5.9c-.54,0-.97-.4-.97-.9s.43-.9,.97-.9h5.86c.54,0,.99,.4,.99,.9s-.41,.9-.95,.9Zm-11.76,0h-5.86c-.54,0-.97-.4-.97-.9s.43-.9,.97-.9h5.86c.54,0,.97,.4,.97,.9s-.43,.9-.97,.9Zm-11.71,0h-5.86c-.54,0-.97-.4-.97-.9s.43-.9,.97-.9h5.86c.54,0,.97,.4,.97,.9s-.43,.9-.97,.9Zm-11.71,0h-5.86c-.54,0-.97-.4-.97-.9s.43-.9,.97-.9h5.86c.54,0,.97,.4,.97,.9s-.43,.9-.97,.9Zm-11.71,0h-5.86c-.54,0-.97-.4-.97-.9s.43-.9,.97-.9h5.86c.54,0,.97,.4,.97,.9s-.43,.9-.97,.9Zm-11.71,0h-5.86c-.54,0-.97-.4-.97-.9s.43-.9,.97-.9h5.86c.54,0,.97,.4,.97,.9s-.43,.9-.97,.9Zm-11.71,0h-5.86c-.54,0-.97-.4-.97-.9s.43-.9,.97-.9h5.86c.54,0,.97,.4,.97,.9s-.43,.9-.97,.9Zm-11.71,0h-5.86c-.54,0-.97-.4-.97-.9s.43-.9,.97-.9h5.86c.54,0,.97,.4,.97,.9s-.43,.9-.97,.9Zm-11.71,0h-5.86c-.54,0-.97-.4-.97-.9s.43-.9,.97-.9h5.86c.54,0,.97,.4,.97,.9s-.43,.9-.97,.9Zm-11.71,0h-5.66c-.08,0-.17,0-.25,0-.53-.02-.95-.45-.92-.94,.03-.49,.46-.88,1.02-.85,.05,0,.1,0,.15,0h5.66c.54,0,.97,.4,.97,.9s-.43,.9-.97,.9Zm109.26-3.43h-.03c-.53-.02-.96-.43-.94-.93v-5.39c0-.5,.44-.9,.97-.9s.97,.4,.97,.9v5.45c-.02,.49-.45,.87-.97,.87Zm-118.75-.14c-.54,0-.97-.4-.97-.9v-5.42c0-.5,.43-.9,.97-.9s.97,.4,.97,.9v5.42c0,.5-.43,.9-.97,.9Zm118.75-10.69c-.54,0-.97-.4-.97-.9v-5.42c0-.5,.43-.9,.97-.9s.97,.4,.97,.9v5.42c0,.5-.43,.9-.97,.9Zm-118.75-.14c-.54,0-.97-.4-.97-.9v-5.42c0-.5,.43-.9,.97-.9s.97,.4,.97,.9v5.42c0,.5-.43,.9-.97,.9Zm118.75-10.69c-.54,0-.97-.4-.97-.9v-5.42c0-.5,.43-.9,.97-.9s.97,.4,.97,.9v5.42c0,.5-.43,.9-.97,.9Zm-118.75-.14c-.54,0-.97-.4-.97-.9v-5.28c0-.06,0-.11,0-.17,.02-.49,.45-.88,1.01-.86,.53,.02,.95,.44,.93,.93v5.38c0,.5-.44,.9-.97,.9Zm115.1-8.83h-5.86c-.54,0-.97-.41-.97-.9s.43-.9,.97-.9h5.68c.07,0,.15,0,.22,0,.53,.02,.95,.44,.93,.94-.02,.48-.45,.86-.97,.86Zm-11.72,0h-5.86c-.54,0-.97-.4-.97-.9s.43-.9,.97-.9h5.86c.54,0,.97,.4,.97,.9s-.43,.9-.97,.9Zm-11.71,0h-5.86c-.54,0-.97-.4-.97-.9s.43-.9,.97-.9h5.86c.54,0,.97,.4,.97,.9s-.43,.9-.97,.9Zm-11.71,0h-5.86c-.54,0-.97-.4-.97-.9s.43-.9,.97-.9h5.86c.54,0,.97,.4,.97,.9s-.43,.9-.97,.9Zm-11.71,0h-5.86c-.54,0-.97-.4-.97-.9s.43-.9,.97-.9h5.86c.54,0,.97,.4,.97,.9s-.43,.9-.97,.9Zm-11.71,0h-5.86c-.54,0-.97-.4-.97-.9s.43-.9,.97-.9h5.86c.54,0,.97,.4,.97,.9s-.43,.9-.97,.9Zm-11.71,0h-5.86c-.54,0-.97-.4-.97-.9s.43-.9,.97-.9h5.86c.54,0,.97,.4,.97,.9s-.43,.9-.97,.9Zm-11.71,0h-5.86c-.54,0-.97-.4-.97-.9s.43-.9,.97-.9h5.86c.54,0,.97,.4,.97,.9s-.43,.9-.97,.9Zm-11.71,0h-5.86c-.54,0-.97-.4-.97-.9s.43-.9,.97-.9h5.86c.54,0,.97,.4,.97,.9s-.43,.9-.97,.9Zm-11.71,0h-5.83c-.54,0-.98-.4-.98-.9s.42-.9,.96-.9h5.86c.54,0,.97,.4,.97,.9s-.43,.9-.97,.9Z"></path><path fill="#6b98f6" d="M622.79,811.17h-5.85c-.54,0-.97-.4-.97-.9s.43-.9,.97-.9h5.81c.54,0,.99,.4,.99,.9s-.41,.9-.95,.9Zm-11.65,0h-5.81c-.54,0-.97-.4-.97-.9s.43-.9,.97-.9h5.81c.54,0,.97,.4,.97,.9s-.43,.9-.97,.9Zm-11.61,0h-5.81c-.54,0-.97-.4-.97-.9s.43-.9,.97-.9h5.81c.54,0,.97,.4,.97,.9s-.43,.9-.97,.9Zm-11.61,0h-5.81c-.54,0-.97-.4-.97-.9s.43-.9,.97-.9h5.81c.54,0,.97,.4,.97,.9s-.43,.9-.97,.9Zm-11.61,0h-5.81c-.54,0-.97-.4-.97-.9s.43-.9,.97-.9h5.81c.54,0,.97,.4,.97,.9s-.43,.9-.97,.9Zm-11.61,0h-5.81c-.54,0-.97-.4-.97-.9s.43-.9,.97-.9h5.81c.54,0,.97,.4,.97,.9s-.43,.9-.97,.9Zm-11.61,0h-5.81c-.54,0-.97-.4-.97-.9s.43-.9,.97-.9h5.81c.54,0,.97,.4,.97,.9s-.43,.9-.97,.9Zm-11.61,0h-5.81c-.54,0-.97-.4-.97-.9s.43-.9,.97-.9h5.81c.54,0,.97,.4,.97,.9s-.43,.9-.97,.9Zm-11.61,0h-5.81c-.54,0-.97-.4-.97-.9s.43-.9,.97-.9h5.81c.54,0,.97,.4,.97,.9s-.43,.9-.97,.9Zm-11.61,0h-5.81c-.54,0-.97-.4-.97-.9s.43-.9,.97-.9h5.81c.54,0,.97,.4,.97,.9s-.43,.9-.97,.9Zm-11.61,0h-5.81c-.54,0-.97-.4-.97-.9s.43-.9,.97-.9h5.81c.54,0,.97,.4,.97,.9s-.43,.9-.97,.9Zm-11.61,0h-5.81c-.54,0-.97-.4-.97-.9s.43-.9,.97-.9h5.81c.54,0,.97,.4,.97,.9s-.43,.9-.97,.9Zm-11.61,0h-5.81c-.54,0-.97-.4-.97-.9s.43-.9,.97-.9h5.81c.54,0,.97,.4,.97,.9s-.43,.9-.97,.9Zm-11.61,0h-5.81c-.54,0-.97-.4-.97-.9s.43-.9,.97-.9h5.81c.54,0,.97,.4,.97,.9s-.43,.9-.97,.9Zm-11.61,0h-5.81c-.54,0-.97-.4-.97-.9s.43-.9,.97-.9h5.81c.54,0,.97,.4,.97,.9s-.43,.9-.97,.9Zm-11.61,0h-4.64c-.43,0-.86-.02-1.28-.07-.53-.06-.91-.5-.85-1,.06-.49,.55-.85,1.08-.79,.35,.04,.7,.06,1.05,.06h4.64c.54,0,.97,.4,.97,.9s-.43,.9-.97,.9Zm179.71-1.55c-.31,0-.62-.14-.81-.4-.3-.41-.18-.97,.26-1.24,1.47-.91,2.6-2.19,3.28-3.69,.21-.46,.77-.67,1.27-.48,.49,.19,.73,.72,.52,1.17-.82,1.83-2.2,3.39-3.98,4.49-.17,.1-.35,.15-.54,.15Zm-190.76-.63c-.22,0-.45-.07-.63-.21-1.64-1.29-2.82-2.98-3.41-4.89-.15-.48,.15-.97,.67-1.11,.52-.14,1.05,.14,1.2,.62,.48,1.56,1.45,2.95,2.8,4.01,.41,.32,.46,.89,.11,1.26-.19,.21-.46,.32-.74,.32Zm195.14-8.74c-.54,0-.97-.4-.97-.9v-5.37c0-.5,.43-.9,.97-.9s.97,.4,.97,.9v5.37c0,.5-.43,.9-.97,.9Zm-198.62-1.05c-.54,0-.97-.4-.97-.9v-5.37c0-.5,.43-.9,.97-.9s.97,.4,.97,.9v5.37c0,.5-.43,.9-.97,.9Zm198.62-9.7c-.54,0-.97-.4-.97-.9v-5.37c0-.5,.43-.9,.97-.9s.97,.4,.97,.9v5.37c0,.5-.43,.9-.97,.9Zm-198.62-1.05c-.54,0-.97-.4-.97-.9v-5.37c0-.5,.43-.9,.97-.9s.97,.4,.97,.9v5.37c0,.5-.43,.9-.97,.9Zm198.62-9.7c-.54,0-.97-.4-.97-.9v-5.37c0-.5,.43-.9,.97-.9s.97,.4,.97,.9v5.37c0,.5-.43,.9-.97,.9Zm-198.62-1.05c-.54,0-.97-.4-.97-.9v-5.37c0-.5,.43-.9,.97-.9s.97,.4,.97,.9v5.37c0,.5-.43,.9-.97,.9Zm198.62-9.7c-.54,0-.97-.4-.97-.9v-5.37c0-.5,.43-.9,.97-.9s.97,.4,.97,.9v5.37c0,.5-.43,.9-.97,.9Zm-198.62-1.05c-.54,0-.97-.4-.97-.9v-5.37c0-.5,.43-.9,.97-.9s.97,.4,.97,.9v5.37c0,.5-.43,.9-.97,.9Zm198.62-9.7c-.54,0-.97-.4-.97-.9v-5.37c0-.5,.43-.9,.97-.9s.97,.4,.97,.9v5.37c0,.5-.43,.9-.97,.9Zm-198.62-1.05c-.54,0-.97-.4-.97-.9v-5.37c0-.5,.43-.9,.97-.9s.97,.4,.97,.9v5.37c0,.5-.43,.9-.97,.9Zm198.62-9.7c-.54,0-.97-.4-.97-.9v-5.37c0-.5,.43-.9,.97-.9s.97,.4,.97,.9v5.37c0,.5-.43,.9-.97,.9Zm-198.62-1.05c-.54,0-.97-.4-.97-.9v-5.37c0-.5,.43-.9,.97-.9s.97,.4,.97,.9v5.37c0,.5-.43,.9-.97,.9Zm198.62-9.7c-.54,0-.97-.4-.97-.9v-5.37c0-.5,.43-.9,.97-.9s.97,.4,.97,.9v5.37c0,.5-.43,.9-.97,.9Zm-198.62-1.05c-.54,0-.97-.4-.97-.9v-5.37c0-.5,.43-.9,.97-.9s.97,.4,.97,.9v5.37c0,.5-.43,.9-.97,.9Zm198.62-9.7c-.54,0-.97-.4-.97-.9v-5.37c0-.5,.43-.9,.97-.9s.97,.4,.97,.9v5.37c0,.5-.43,.9-.97,.9Zm-198.62-1.05c-.54,0-.97-.4-.97-.9v-5.37c0-.5,.43-.9,.97-.9s.97,.4,.97,.9v5.37c0,.5-.43,.9-.97,.9Zm198.62-9.7c-.54,0-.97-.4-.97-.9v-5.37c0-.5,.43-.9,.97-.9s.97,.4,.97,.9v5.37c0,.5-.43,.9-.97,.9Zm-198.62-1.05c-.54,0-.97-.4-.97-.9v-5.37c0-.5,.43-.9,.97-.9s.97,.4,.97,.9v5.37c0,.5-.43,.9-.97,.9Zm198.62-9.7c-.54,0-.97-.4-.97-.9v-5.37c0-.5,.43-.9,.97-.9s.97,.4,.97,.9v5.37c0,.5-.43,.9-.97,.9Zm-198.62-1.05c-.54,0-.97-.4-.97-.9v-5.37c0-.5,.43-.9,.97-.9s.97,.4,.97,.9v5.37c0,.5-.43,.9-.97,.9Zm198.62-9.7c-.54,0-.97-.4-.97-.9v-5.37c0-.5,.43-.9,.97-.9s.97,.4,.97,.9v5.37c0,.5-.43,.9-.97,.9Zm-198.62-1.05c-.54,0-.97-.4-.97-.9v-5.37c0-.5,.43-.9,.97-.9s.97,.4,.97,.9v5.37c0,.5-.43,.9-.97,.9Zm198.24-9.66c-.42,0-.81-.26-.93-.65-.49-1.56-1.46-2.95-2.81-4.01-.41-.32-.46-.89-.11-1.26,.35-.38,.96-.42,1.37-.1,1.64,1.29,2.82,2.98,3.42,4.88,.15,.48-.15,.97-.66,1.11-.09,.02-.18,.04-.27,.04Zm-197.48-.99c-.12,0-.25-.02-.37-.07-.49-.19-.73-.72-.52-1.17,.83-1.83,2.21-3.38,3.99-4.49,.45-.28,1.05-.16,1.34,.25,.3,.41,.18,.97-.27,1.24-1.47,.91-2.6,2.18-3.28,3.69-.16,.34-.52,.55-.9,.55Zm189.12-5.57s-.07,0-.11,0c-.34-.04-.69-.06-1.04-.06h-4.66c-.54,0-.97-.4-.97-.9s.43-.9,.97-.9h4.66c.42,0,.84,.02,1.26,.07,.53,.06,.91,.5,.85,.99-.06,.46-.48,.8-.96,.8Zm-11.61-.06h-5.81c-.54,0-.97-.4-.97-.9s.43-.9,.97-.9h5.81c.54,0,.97,.4,.97,.9s-.43,.9-.97,.9Zm-11.61,0h-5.81c-.54,0-.97-.4-.97-.9s.43-.9,.97-.9h5.81c.54,0,.97,.4,.97,.9s-.43,.9-.97,.9Zm-11.61,0h-5.81c-.54,0-.97-.4-.97-.9s.43-.9,.97-.9h5.81c.54,0,.97,.4,.97,.9s-.43,.9-.97,.9Zm-11.61,0h-5.81c-.54,0-.97-.4-.97-.9s.43-.9,.97-.9h5.81c.54,0,.97,.4,.97,.9s-.43,.9-.97,.9Zm-11.61,0h-5.81c-.54,0-.97-.4-.97-.9s.43-.9,.97-.9h5.81c.54,0,.97,.4,.97,.9s-.43,.9-.97,.9Zm-11.61,0h-5.81c-.54,0-.97-.4-.97-.9s.43-.9,.97-.9h5.81c.54,0,.97,.4,.97,.9s-.43,.9-.97,.9Zm-11.61,0h-5.81c-.54,0-.97-.4-.97-.9s.43-.9,.97-.9h5.81c.54,0,.97,.4,.97,.9s-.43,.9-.97,.9Zm-11.61,0h-5.81c-.54,0-.97-.4-.97-.9s.43-.9,.97-.9h5.81c.54,0,.97,.4,.97,.9s-.43,.9-.97,.9Zm-11.61,0h-5.81c-.54,0-.97-.4-.97-.9s.43-.9,.97-.9h5.81c.54,0,.97,.4,.97,.9s-.43,.9-.97,.9Zm-11.61,0h-5.81c-.54,0-.97-.4-.97-.9s.43-.9,.97-.9h5.81c.54,0,.97,.4,.97,.9s-.43,.9-.97,.9Zm-11.61,0h-5.81c-.54,0-.97-.4-.97-.9s.43-.9,.97-.9h5.81c.54,0,.97,.4,.97,.9s-.43,.9-.97,.9Zm-11.61,0h-5.81c-.54,0-.97-.4-.97-.9s.43-.9,.97-.9h5.81c.54,0,.97,.4,.97,.9s-.43,.9-.97,.9Zm-11.61,0h-5.81c-.54,0-.97-.4-.97-.9s.43-.9,.97-.9h5.81c.54,0,.97,.4,.97,.9s-.43,.9-.97,.9Zm-11.61,0h-5.81c-.54,0-.97-.4-.97-.9s.43-.9,.97-.9h5.81c.54,0,.97,.4,.97,.9s-.43,.9-.97,.9Zm-11.61,0h-5.79c-.54,0-.98-.4-.98-.9s.42-.9,.96-.9h5.81c.54,0,.97,.4,.97,.9s-.43,.9-.97,.9Z"></path><g><path fill="#d1e0ff" d="M449.03,510.79h225.7c7.54,0,13.66,6.12,13.66,13.66v108.37c0,7.54-6.12,13.66-13.66,13.66h-225.7c-7.54,0-13.66-6.12-13.66-13.66v-108.37c0-7.54,6.12-13.66,13.66-13.66Z"></path><path fill="#ff912b" d="M533.33,551.73v53.83c0,3.37,4.04,5.38,7.08,3.53l44.22-26.92c2.75-1.67,2.75-5.4,0-7.07l-44.22-26.92c-3.04-1.85-7.08,.17-7.08,3.53Z"></path><g><path fill="#a9c2ff" d="M448.52,634.25c0-2.32,2.03-4.2,4.54-4.2s4.54,1.88,4.54,4.2-2.03,4.2-4.54,4.2-4.54-1.88-4.54-4.2Z"></path><path fill="#a9c2ff" d="M659.68,635.38h-205.39c-.68,0-1.22-.51-1.22-1.13h0c0-.63,.55-1.13,1.22-1.13h205.39c.68,0,1.22,.51,1.22,1.13h0c0,.62-.55,1.13-1.22,1.13Z"></path></g></g><rect opacity=".5" fill="#e8f2fa" height="180.8" width="130.91" y="674.57" x="672"></rect><g><g><path fill="#25468f" d="M750.02,732.66h-1.79v-7.45c0-2.67,2.35-4.85,5.24-4.85h22.15c1.56,0,2.94-.98,3.33-2.38l3.5-12.32c.27-.96,.05-1.97-.6-2.76-.66-.79-1.65-1.24-2.73-1.24h-28.9v-1.66h28.9c1.64,0,3.15,.69,4.15,1.89,1,1.2,1.33,2.73,.92,4.19l-3.5,12.32c-.61,2.13-2.69,3.61-5.06,3.61h-22.15c-1.9,0-3.45,1.43-3.45,3.19v7.45Z"></path><rect fill="#ff912b" ry="6.99" rx="6.99" height="13.98" width="49.69" y="693.85" x="726.96"></rect><path fill="#25468f" d="M749.12,763.58h0c-2.72,0-4.92-2.04-4.92-4.56v-27.61c0-2.52,2.2-4.56,4.92-4.56h0c2.72,0,4.92,2.04,4.92,4.56v27.61c0,2.52-2.2,4.56-4.92,4.56Z"></path></g><g><path fill="#ffae73" d="M937.57,823.46s3.39,9.65,3.1,11.86c-.29,2.21-2.42,9.75-3.94,11.68-1.52,1.93-2.27-7.86-3.47-9.34-1.2-1.47-.25,3.69-1.09,4.17-.85,.48-2.62-3.8-3.37-5.31-.76-1.51,1.86-7.07,1.86-10.95,0-3.88,6.92-2.12,6.92-2.12Z"></path><path fill="#1e3865" d="M857.89,746.78c-.94-11.07,12.06-18.66,22.32-12.9,.21,.12,.42,.24,.63,.36,15.36,9.15,48.52,51.84,50.8,56.12,2.28,4.28,9.02,38.3,9.02,38.3,0,0-8.32,2.82-12.21-.11,0,0-13.5-32.27-15.49-33.88-2-1.61-53.98-28.6-54.42-38.72-.12-2.67-.35-5.89-.63-9.18Z"></path></g><g><path fill="#214a80" d="M950.66,996.67s6.19,5.23,4.99,8.95c-1.21,3.72-6.8,6.19-7.55,10.74-.76,4.54-3.78,7.02-6.5,7.02h-12.97s-2-3.2,2.83-4.16c4.83-.96,6.66-6.3,6.36-11.26s.45-11.56,.45-11.56l10.27-2.2,2.12,2.48Z"></path><path fill="#214a80" d="M874.66,1010.2s1.11,11.9-1.61,13.14l-34.8-.07s0-3.72,5.59-4.54c5.59-.83,15.41-3.85,17.07-10.6,1.66-6.74,13.75,2.06,13.75,2.06Z"></path><path fill="#ff912b" d="M845.28,842.05s1.84,20.87,3.99,45.95c2.93,34.07,6.46,75.92,6.81,83.85,.6,13.77,3.02,35.79,3.02,35.79,0,0,5.74,5.23,17.22,3.03,0,0,10.23-31.44,13.16-64.7,.05-.55,.09-1.09,.14-1.64,2.72-33.86,6.95-105.16,6.95-105.16l-51.29,2.89Z"></path><path fill="#f70" d="M845.28,842.05s1.84,20.87,3.99,45.95l40.21,57.97c.05-.55,.09-1.09,.14-1.64,2.72-33.86,6.95-105.16,6.95-105.16l-51.29,2.89Z"></path><path fill="#ff912b" d="M853.66,844.53s33.09,75.57,54.84,111.08c21.76,35.51,28.56,45.42,28.56,45.42,0,0,12.46-4.54,13.6-7.64,0,0-8.32-68.56-22.89-85.27-8.23-9.44-17.9-37.78-18.36-47.69-.45-9.91-2.95-29.52-2.95-29.52l-52.81,13.63Z"></path></g><path fill="#ffae73" d="M882.19,731.18s-22.17,10.4-35.15,6.93c0,0,3.1-3.77,8.6-6.63-.5-2.39-.89-4.46-1.13-6.22-.63-4.06-.68-6.37-.68-6.37l8.5-6.44,8.06-6.16c-.28,16.92,11.8,24.89,11.8,24.89Z"></path><path fill="#25468f" d="M904.21,836.88c-8.95,5.01-17.42,8.78-27.34,10.9-11.7,2.57-26.07,1.81-30.88,2.49-.49,.06-.96-.06-1.4-.33-.38-.18-2.5-13.38-4.63-30.04-.09-.67-.19-1.35-.23-2.03l-.03-.22c-.83-6.51-1.55-13.36-2.18-20.21-.51-5.34-.94-10.61-1.23-15.57-.37-6.2-.52-11.9-.37-16.59,.07-2.14,.2-4.07,.41-5.74,1.27-9.73,6.28-16.69,11.01-21.87l3.92-4.13c4.54,.27,9.18-.53,13.56-3.2,4.79-2.92,9.95-6.05,10.93-5.53,7.34,3.71,13.31,13.34,17.58,26.05,2.45,7.32,4.32,15.62,5.52,24.41,.39,2.73,.71,5.53,.97,8.31,.05,.52,.09,1.03,.14,1.54,.58,7.62,1.52,14.76,2.56,21.14,1.4,8.6,3,15.8,4.13,20.88,.57,2.58,1,4.58,1.25,6.01,.23,1.25-2.47,3.04-3.68,3.73Z"></path><path fill="#f99352" d="M870.68,712.75s-5.45,9.64-16.17,12.51c-.63-4.06-.68-6.37-.68-6.37l8.5-6.44,8.35,.3Z"></path><path fill="#ffae73" d="M849.88,718.69s21.42,2.84,23.17-9.34c1.74-12.18,5.68-20.02-7.92-22.35-13.6-2.33-16.93,2.01-18.6,5.94-1.67,3.94-2.17,24.69,3.35,25.75Z"></path><path fill="#2a3967" d="M880.3,685.27c.19-.21,.63-.38,1.63-.45,0,0-.8-.45-1.87-.45-.24-1.28-1.02-3.53-3.41-4.04,0,0,1.29,.61,1.49,1.97-2.81-2.57-8.77-4.37-25.1-2.87-21.53,1.97-14.15,14.62-11.33,16.09,2.82,1.47,9.76-2.83,14.97-2.55,5.21,.29,6.35,7.22,8.13,8.15,1.79,.92,1.06-.75,3.42-1.8,2.37-1.04,2.67,2.61,2.03,5.01-.64,2.39,2.71,5.47,2.71,5.47l3.24-3.36c3.25-3.36,6.07-17.41,4.5-20.37-.14-.26-.28-.53-.42-.79Z"></path><path fill="#1e3865" d="M873.5,766.36s-18.06,12.72-37.21,15.5c-.37-6.2-.52-11.9-.37-16.59l37.58,1.09Z"></path><g><path fill="#ffae73" d="M762.57,749.95c-.28-.28-3.97-11.67-10.34-10.84-4.16,.54-10.95,2.77-9.14,7.83,.71,1.99,13.37,8.85,13.37,8.85l6.11-5.84Z"></path><path fill="#25468f" d="M875.73,741.79c10.3,5.7,9.46,19.9-1.55,24.31-.23,.09-.45,.18-.68,.26-16.96,6.29-73.78,6.59-78.86,5.83-5.09-.76-38.97-15.37-38.97-15.37,0,0,2.34-7.91,7.16-9.15,0,0,36.25,8.5,38.83,7.93,2.58-.57,56.46-24.17,65.63-18.64,2.43,1.46,5.39,3.15,8.45,4.84Z"></path></g></g><g><path fill="#e8f2fa" d="M1257.95,367.79h-45.23c-1.9,0-3.46-1.44-3.46-3.2h0c0-1.76,1.56-3.2,3.46-3.2h45.23c1.9,0,3.46,1.44,3.46,3.2h0c0,1.76-1.56,3.2-3.46,3.2Z"></path><path fill="#e8f2fa" d="M1257.95,380.29h-45.23c-1.9,0-3.46-1.44-3.46-3.2h0c0-1.76,1.56-3.2,3.46-3.2h45.23c1.9,0,3.46,1.44,3.46,3.2h0c0,1.76-1.56,3.2-3.46,3.2Z"></path><path fill="#e8f2fa" d="M1257.95,393.1h-45.23c-1.9,0-3.46-1.44-3.46-3.2h0c0-1.76,1.56-3.2,3.46-3.2h45.23c1.9,0,3.46,1.44,3.46,3.2h0c0,1.76-1.56,3.2-3.46,3.2Z"></path></g><path fill="#e8f2fa" d="M1080.84,694.83h-107.67c-2.52,0-4.58-1.91-4.58-4.24h0c0-2.33,2.06-4.24,4.58-4.24h107.67c2.52,0,4.58,1.91,4.58,4.24h0c0,2.33-2.06,4.24-4.58,4.24Z"></path><path fill="#e8f2fa" d="M554.51,403.77h-107.67c-2.52,0-4.58-1.91-4.58-4.24h0c0-2.33,2.06-4.24,4.58-4.24h107.67c2.52,0,4.58,1.91,4.58,4.24h0c0,2.33-2.06,4.24-4.58,4.24Z"></path><path fill="#e8f2fa" d="M1080.84,736.9h-107.67c-2.52,0-4.58-1.91-4.58-4.24h0c0-2.33,2.06-4.24,4.58-4.24h107.67c2.52,0,4.58,1.91,4.58,4.24h0c0,2.33-2.06,4.24-4.58,4.24Z"></path><path fill="#e8f2fa" d="M1080.84,715.86h-128.78c-2.52,0-4.58-1.91-4.58-4.24h0c0-2.33,2.06-4.24,4.58-4.24h128.78c2.52,0,4.58,1.91,4.58,4.24h0c0,2.33-2.06,4.24-4.58,4.24Z"></path><g><rect fill="#e8f2fa" ry="4.24" rx="4.24" height="8.48" width="67.73" y="421.95" x="458.3"></rect><path fill="#e8f2fa" d="M438.18,426.19c0-2.34,2.05-4.24,4.58-4.24s4.58,1.9,4.58,4.24-2.05,4.24-4.58,4.24-4.58-1.9-4.58-4.24Z"></path></g><g><rect fill="#e8f2fa" ry="4.24" rx="4.24" height="8.48" width="79.56" y="438.83" x="458.3"></rect><path fill="#e8f2fa" d="M438.18,443.07c0-2.34,2.05-4.24,4.58-4.24s4.58,1.9,4.58,4.24-2.05,4.24-4.58,4.24-4.58-1.9-4.58-4.24Z"></path></g><g><rect fill="#e8f2fa" ry="4.24" rx="4.24" height="8.48" width="67.73" y="457.15" x="458.3"></rect><path fill="#e8f2fa" d="M438.18,461.39c0-2.34,2.05-4.24,4.58-4.24s4.58,1.9,4.58,4.24-2.05,4.24-4.58,4.24-4.58-1.9-4.58-4.24Z"></path></g><g><path fill="#6b98f6" d="M633.06,439.93c-.8,.1-1.6,.15-2.42,.14-4.32-.05-8.36-1.65-11.38-4.5-6.23-5.9-6.11-15.39,.26-21.16h0c6.38-5.77,16.64-5.66,22.87,.24,6.23,5.9,6.11,15.39-.27,21.16-2.5,2.26-5.66,3.69-9.07,4.12Zm-11.67-23.76c-5.33,4.82-5.43,12.74-.22,17.67,2.52,2.39,5.9,3.72,9.5,3.76,3.6,.04,7.01-1.22,9.6-3.56,5.33-4.82,5.43-12.74,.22-17.67-5.21-4.93-13.77-5.02-19.1-.2h0Z"></path><polygon fill="#6b98f6" points="605.36 449.85 603.5 448.09 619.28 433.82 621.15 435.58 605.36 449.85"></polygon><path fill="#6b98f6" d="M598.95,453.93h0c-.92-.87-.9-2.26,.04-3.11l9.3-8.4c.94-.85,2.44-.83,3.36,.04h0c.92,.87,.9,2.26-.04,3.11l-9.3,8.4c-.94,.85-2.44,.83-3.36-.04Z"></path></g><g><path fill="#214d9a" d="M1221.67,1023.66h0c-2.06,.01-4.23-1.37-4.84-3.08l-124.24-350c-.61-1.71,.57-3.11,2.63-3.12h0c2.06-.01,4.23,1.37,4.83,3.08l124.24,350c.61,1.71-.57,3.11-2.63,3.12Z"></path><path fill="#214d9a" d="M1321.8,1023.12h0c-2.06,.01-4.23-1.37-4.83-3.08l-124.24-350c-.61-1.71,.57-3.11,2.63-3.12h0c2.06-.01,4.23,1.37,4.83,3.08l124.24,350c.61,1.71-.57,3.11-2.63,3.12Z"></path><path fill="#214d9a" d="M1213.98,718.81l-100.55,.54c-1.94,.01-3.99-1.3-4.56-2.91h0c-.57-1.61,.55-2.94,2.49-2.95l100.55-.54c1.94-.01,3.99,1.3,4.56,2.91h0c.57,1.61-.55,2.94-2.49,2.95Z"></path><path fill="#214d9a" d="M1235.68,779.92l-100.55,.54c-1.94,.01-3.99-1.3-4.56-2.91h0c-.57-1.61,.55-2.94,2.49-2.95l100.55-.54c1.94-.01,3.99,1.3,4.56,2.91h0c.57,1.61-.55,2.94-2.49,2.95Z"></path><path fill="#214d9a" d="M1256.57,838.77l-100.55,.54c-1.94,.01-3.99-1.3-4.56-2.91h0c-.57-1.61,.55-2.94,2.49-2.95l100.55-.54c1.94-.01,3.99,1.3,4.56,2.91h0c.57,1.61-.55,2.94-2.49,2.95Z"></path><path fill="#214d9a" d="M1280.09,905.03l-100.55,.54c-1.94,.01-3.99-1.3-4.56-2.91h0c-.57-1.61,.55-2.94,2.49-2.95l100.55-.54c1.94-.01,3.99,1.3,4.56,2.91h0c.57,1.61-.55,2.94-2.49,2.95Z"></path><path fill="#214d9a" d="M1304.71,974.38l-100.55,.54c-1.94,.01-3.99-1.3-4.56-2.91h0c-.57-1.61,.55-2.94,2.49-2.95l100.55-.54c1.94-.01,3.99,1.3,4.56,2.91h0c.57,1.61-.55,2.94-2.49,2.95Z"></path></g><g><path fill="#214d9a" d="M1088.25,510.28h0c-.79,.14-1.56-.34-1.71-1.07l-1.61-7.69c-.15-.73,.37-1.44,1.16-1.58h0c.79-.14,1.56,.34,1.71,1.07l1.61,7.69c.15,.73-.37,1.44-1.16,1.58Z"></path><polygon fill="#214d9a" points="1086.19 497.99 1085.21 498.17 1082.88 487.05 1083.87 486.88 1086.19 497.99"></polygon><path fill="#ffae73" d="M1083.87,424.32s-.95-7.66-2.96-10.58c-2.01-2.93-9.58-4.81-10.06-4.38-1.48,1.33,4.38,6.03,4.61,7.77,.23,1.73-2.98,.53-1.44,3.91,1.3,2.85,5.59,6.55,5.59,6.55l4.25-3.27Z"></path><path fill="#f28018" d="M1080.22,423.46c2.76-2.01,3.35-1.97,3.35-1.97,0,0,25.57,20.49,28.06,22.32,2.49,1.83,40.89,12.13,40.89,12.13l6.1,28.88s-51.96-23.22-58.17-27.96c-10.26-7.83-23.21-29.74-23.21-29.74,0,0,.8-2.08,2.98-3.66Z"></path><path fill="#0b3563" d="M1153.34,701.04s-.44,9.87-2.49,12.27l-28.5,.15c.2-1.02,.32-3.37,4.26-4.01,4.98-.8,10.83-4.02,13.84-10.11,3.17-6.41,12.89,1.69,12.89,1.69Z"></path><path fill="#0b3563" d="M1209.27,699.61s1.99,13.11-.71,13.34c-.36,.03-11.48,.2-16.3,.27-5.67,.09-14.98-.1-14.98-.1-1.17,.04-1.94-1.13-1.34-2.06,.65-1.02,1.9-2.12,4.28-2.54,4.96-.88,13.23-4.26,16.13-10.39,3.05-6.46,12.92,1.48,12.92,1.48Z"></path><path fill="#1e3865" d="M1138.52,565.23s7.92,25.66,30.64,70.21c22.71,44.55,23.69,66.02,23.69,66.02,0,0,3.44,1.12,8,.67,4.93-.49,8.42-2.52,8.42-2.52,0,0-1.47-53.03-12.2-75.51-10.73-22.48-12.91-84.01-12.91-84.01l-45.63,25.14Z"></path><path fill="#214d9a" d="M1125.8,543.16s-.63,39.73,6.8,88.5c7.43,48.78,3.96,71.46,3.96,71.46,0,0,1.97,1.33,8.03,1.3,7.09-.03,10.72-2.74,10.72-2.74,0,0,10.63-48.8,7.58-73.21-3.05-24.41,14.56-83.78,14.56-83.78l-51.65-1.55Z"></path><path fill="#ffae73" d="M1160.91,450.19l-8.39,5.75-12.13-2.36c.17-1.02,.97-5.26,1.7-9.11,.04-.23,.09-.45,.13-.67,.62-3.27,1.16-6.08,1.16-6.08l11.33-5.22,4.22-1.95c-.01,.07-.33,3.63-.37,4.15-.79,9.23,2.35,15.49,2.35,15.49Z"></path><path fill="#ff912b" d="M1184.94,548.06c-2.74,11.61-61.47,6.51-60.71-.57,.03-.24,.18-3.52,.39-7.94,.45-9.57,1.12-24.51,1.21-25.68,0-.02,0-.04,0-.06,1.06-9.87,2.07-19.52,2.14-25.83,.06-5.47,.88-11.06,1.96-16.13,1-4.69,2.23-8.94,3.29-12.25,.75-2.34,2.15-4.39,4.01-6,1.32-1.15,2.87-2.07,4.58-2.7,.47-.18,.94-.33,1.42-.46,6.91-1.86,16.48-4.15,19.07-3.45,7.02,1.91,12.24,13.35,15.93,27.92,6.91,27.28,8.51,65.59,6.71,73.16Z"></path><path fill="#ffa05e" d="M1157.71,434.86c-2.49,4.4-11.76,8.21-15.62,9.61,.04-.23,.09-.45,.13-.67,.62-3.27,1.16-6.08,1.16-6.08l11.33-5.22c2.5-.04,4.03,.55,3,2.36Z"></path><path fill="#ffae73" d="M1137.87,437.11s20.44,5.9,24.21-5.93c3.77-11.83,8.95-19.04-3.93-23.31-12.89-4.27-16.88-.45-19.17,3.22-2.3,3.67-6.32,24.18-1.1,26.02Z"></path><path fill="#0b3563" d="M1139.78,409.95s1.3,13.77,4.38,13.17c3.08-.6,5.87-1.04,5.42,3.11-.45,4.15-4.72,8.94,4.77,9.68,9.48,.73,23.12-21.9,20.51-26.18-7.52-12.36-45.94-14.86-35.08,.22Z"></path><path fill="#f28018" d="M1124.63,539.55c.45-9.57,1.12-24.51,1.21-25.68,0-.02,0-.04,0-.06l34.69-19.19s1.34,44.8-35.91,44.93Z"></path><path fill="#ffae73" d="M1097.06,499.39s-7.05-4.41-8.39-4.8c-1.34-.38-5.72-.8-5.93-.48-.2,.32-.8,1.3-.04,1.63s1.72,.21,1.43,.45c-.29,.23-3.17-1.04-3.83,.32-.67,1.36-1.25,6.02,2.13,7.43,3.38,1.41,11.73,.14,12.33,.3,5.11,1.37,2.29-4.85,2.29-4.85Z"></path><path fill="#ff912b" d="M1096.99,498.19s34.41,5.41,37.46,4.04c4.87-2.19-1.89-34.5-1.89-34.5,0,0-.29-7.32,8.95-9.05,8.03-1.5,15.78,4.07,15.78,4.07,0,0,7.05,5.83,6.15,12.31-2,14.35-5.1,43.52-15.47,48-13.38,5.77-52.08-16-52.08-16,0,0-1.29-1.46-1.11-4.17,.16-2.39,2.2-4.69,2.2-4.69Z"></path><path fill="#ffae73" d="M1073.87,420.65s-2.2-4.05-2.55-4.81c-.35-.76,.51-.6,1.35-.17,.85,.42,2,2.78,3.31,2.49,1.04-.22-2.11,2.49-2.11,2.49Z"></path></g></g></g></g></svg>