<?xml version="1.0" standalone="no"?><!DOCTYPE svg PUBLIC "-//W3C//DTD SVG 1.1//EN" "http://www.w3.org/Graphics/SVG/1.1/DTD/svg11.dtd"><svg t="1674869018575" class="icon" viewBox="0 0 1024 1024" version="1.1" xmlns="http://www.w3.org/2000/svg" p-id="2193" xmlns:xlink="http://www.w3.org/1999/xlink" width="200" height="200"><path d="M728.32 62.0032a38.4 38.4 0 1 0-33.28 69.2224A424.96 424.96 0 0 1 934.4 512c0 232.9088-189.4912 422.4-422.4 422.4S89.6 744.9088 89.6 512 279.0912 89.6 512 89.6a38.4 38.4 0 0 0 0-76.8C236.7488 12.8 12.8 236.7488 12.8 512s223.9488 499.2 499.2 499.2 499.2-223.9488 499.2-499.2a502.1184 502.1184 0 0 0-282.88-449.9968z" fill="#F63C79" p-id="2194"></path><path d="M731.4432 331.008a38.4 38.4 0 0 0-65.5872-27.136L512 457.728 358.144 303.8208a38.4 38.4 0 0 0-54.3232 54.272L457.728 512l-153.856 153.856a38.2976 38.2976 0 0 0 27.136 65.536 38.0928 38.0928 0 0 0 27.136-11.264L512 566.3232l153.856 153.856a38.2976 38.2976 0 0 0 65.536-27.136 38.0928 38.0928 0 0 0-11.264-27.136L566.3232 512l153.856-153.856a38.0928 38.0928 0 0 0 11.264-27.136z" fill="#F63C79" p-id="2195"></path></svg>